ISO-10303-21;
HEADER;
FILE_DESCRIPTION(('FreeCAD Model'),'2;1');
FILE_NAME('Open CASCADE Shape Model','2026-02-23T21:11:40',('Author'),(
    ''),'Open CASCADE STEP processor 7.7','FreeCAD','Unknown');
FILE_SCHEMA(('AUTOMOTIVE_DESIGN { 1 0 10303 214 1 1 1 1 }'));
ENDSEC;
DATA;
#1 = APPLICATION_PROTOCOL_DEFINITION('international standard',
  'automotive_design',2000,#2);
#2 = APPLICATION_CONTEXT(
  'core data for automotive mechanical design processes');
#3 = SHAPE_DEFINITION_REPRESENTATION(#4,#10);
#4 = PRODUCT_DEFINITION_SHAPE('','',#5);
#5 = PRODUCT_DEFINITION('design','',#6,#9);
#6 = PRODUCT_DEFINITION_FORMATION('','',#7);
#7 = PRODUCT('Pcb_12f2','Pcb_12f2','',(#8));
#8 = PRODUCT_CONTEXT('',#2,'mechanical');
#9 = PRODUCT_DEFINITION_CONTEXT('part definition',#2,'design');
#10 = ADVANCED_BREP_SHAPE_REPRESENTATION('',(#11,#15),#542);
#11 = AXIS2_PLACEMENT_3D('',#12,#13,#14);
#12 = CARTESIAN_POINT('',(0.,0.,0.));
#13 = DIRECTION('',(0.,0.,1.));
#14 = DIRECTION('',(1.,0.,-0.));
#15 = MANIFOLD_SOLID_BREP('',#16);
#16 = CLOSED_SHELL('',(#17,#59,#90,#123,#154,#187,#218,#249,#282,#313,
    #346,#377,#410,#441,#474,#496,#519));
#17 = ADVANCED_FACE('',(#18),#54,.F.);
#18 = FACE_BOUND('',#19,.T.);
#19 = EDGE_LOOP('',(#20,#30,#39,#47));
#20 = ORIENTED_EDGE('',*,*,#21,.T.);
#21 = EDGE_CURVE('',#22,#24,#26,.T.);
#22 = VERTEX_POINT('',#23);
#23 = CARTESIAN_POINT('',(150.1013,-106.1111,0.));
#24 = VERTEX_POINT('',#25);
#25 = CARTESIAN_POINT('',(150.1013,-106.1111,-0.19));
#26 = LINE('',#27,#28);
#27 = CARTESIAN_POINT('',(150.1013,-106.1111,0.));
#28 = VECTOR('',#29,1.);
#29 = DIRECTION('',(0.,0.,-1.));
#30 = ORIENTED_EDGE('',*,*,#31,.T.);
#31 = EDGE_CURVE('',#24,#32,#34,.T.);
#32 = VERTEX_POINT('',#33);
#33 = CARTESIAN_POINT('',(150.7363,-106.7461,-0.19));
#34 = CIRCLE('',#35,0.634999337826);
#35 = AXIS2_PLACEMENT_3D('',#36,#37,#38);
#36 = CARTESIAN_POINT('',(150.10130066217,-106.7460993378,-0.19));
#37 = DIRECTION('',(0.,0.,-1.));
#38 = DIRECTION('',(-1.042794859662E-06,0.999999999999,0.));
#39 = ORIENTED_EDGE('',*,*,#40,.F.);
#40 = EDGE_CURVE('',#41,#32,#43,.T.);
#41 = VERTEX_POINT('',#42);
#42 = CARTESIAN_POINT('',(150.7363,-106.7461,0.));
#43 = LINE('',#44,#45);
#44 = CARTESIAN_POINT('',(150.7363,-106.7461,0.));
#45 = VECTOR('',#46,1.);
#46 = DIRECTION('',(0.,0.,-1.));
#47 = ORIENTED_EDGE('',*,*,#48,.F.);
#48 = EDGE_CURVE('',#22,#41,#49,.T.);
#49 = CIRCLE('',#50,0.634999337826);
#50 = AXIS2_PLACEMENT_3D('',#51,#52,#53);
#51 = CARTESIAN_POINT('',(150.10130066217,-106.7460993378,0.));
#52 = DIRECTION('',(0.,0.,-1.));
#53 = DIRECTION('',(-1.042794859662E-06,0.999999999999,0.));
#54 = CYLINDRICAL_SURFACE('',#55,0.634999337826);
#55 = AXIS2_PLACEMENT_3D('',#56,#57,#58);
#56 = CARTESIAN_POINT('',(150.10130066217,-106.7460993378,0.));
#57 = DIRECTION('',(-0.,-0.,1.));
#58 = DIRECTION('',(-1.042794859662E-06,0.999999999999,0.));
#59 = ADVANCED_FACE('',(#60),#85,.T.);
#60 = FACE_BOUND('',#61,.T.);
#61 = EDGE_LOOP('',(#62,#63,#71,#79));
#62 = ORIENTED_EDGE('',*,*,#40,.T.);
#63 = ORIENTED_EDGE('',*,*,#64,.T.);
#64 = EDGE_CURVE('',#32,#65,#67,.T.);
#65 = VERTEX_POINT('',#66);
#66 = CARTESIAN_POINT('',(150.7363,-110.0961,-0.19));
#67 = LINE('',#68,#69);
#68 = CARTESIAN_POINT('',(150.7363,-106.7461,-0.19));
#69 = VECTOR('',#70,1.);
#70 = DIRECTION('',(0.,-1.,0.));
#71 = ORIENTED_EDGE('',*,*,#72,.F.);
#72 = EDGE_CURVE('',#73,#65,#75,.T.);
#73 = VERTEX_POINT('',#74);
#74 = CARTESIAN_POINT('',(150.7363,-110.0961,0.));
#75 = LINE('',#76,#77);
#76 = CARTESIAN_POINT('',(150.7363,-110.0961,0.));
#77 = VECTOR('',#78,1.);
#78 = DIRECTION('',(0.,0.,-1.));
#79 = ORIENTED_EDGE('',*,*,#80,.F.);
#80 = EDGE_CURVE('',#41,#73,#81,.T.);
#81 = LINE('',#82,#83);
#82 = CARTESIAN_POINT('',(150.7363,-106.7461,0.));
#83 = VECTOR('',#84,1.);
#84 = DIRECTION('',(0.,-1.,0.));
#85 = PLANE('',#86);
#86 = AXIS2_PLACEMENT_3D('',#87,#88,#89);
#87 = CARTESIAN_POINT('',(150.7363,-106.7461,0.));
#88 = DIRECTION('',(-1.,-0.,-0.));
#89 = DIRECTION('',(0.,-1.,0.));
#90 = ADVANCED_FACE('',(#91),#118,.T.);
#91 = FACE_BOUND('',#92,.F.);
#92 = EDGE_LOOP('',(#93,#103,#110,#111));
#93 = ORIENTED_EDGE('',*,*,#94,.T.);
#94 = EDGE_CURVE('',#95,#97,#99,.T.);
#95 = VERTEX_POINT('',#96);
#96 = CARTESIAN_POINT('',(150.8863,-110.2461,0.));
#97 = VERTEX_POINT('',#98);
#98 = CARTESIAN_POINT('',(150.8863,-110.2461,-0.19));
#99 = LINE('',#100,#101);
#100 = CARTESIAN_POINT('',(150.8863,-110.2461,0.));
#101 = VECTOR('',#102,1.);
#102 = DIRECTION('',(0.,0.,-1.));
#103 = ORIENTED_EDGE('',*,*,#104,.T.);
#104 = EDGE_CURVE('',#97,#65,#105,.T.);
#105 = CIRCLE('',#106,0.150000058649);
#106 = AXIS2_PLACEMENT_3D('',#107,#108,#109);
#107 = CARTESIAN_POINT('',(150.88630005864,-110.0960999413,-0.19));
#108 = DIRECTION('',(0.,0.,-1.));
#109 = DIRECTION('',(-3.909954089759E-07,-1.,-0.));
#110 = ORIENTED_EDGE('',*,*,#72,.F.);
#111 = ORIENTED_EDGE('',*,*,#112,.F.);
#112 = EDGE_CURVE('',#95,#73,#113,.T.);
#113 = CIRCLE('',#114,0.150000058649);
#114 = AXIS2_PLACEMENT_3D('',#115,#116,#117);
#115 = CARTESIAN_POINT('',(150.88630005864,-110.0960999413,0.));
#116 = DIRECTION('',(0.,0.,-1.));
#117 = DIRECTION('',(-3.909954089759E-07,-1.,-0.));
#118 = CYLINDRICAL_SURFACE('',#119,0.150000058649);
#119 = AXIS2_PLACEMENT_3D('',#120,#121,#122);
#120 = CARTESIAN_POINT('',(150.88630005864,-110.0960999413,0.));
#121 = DIRECTION('',(-0.,-0.,1.));
#122 = DIRECTION('',(-3.909954089759E-07,-1.,-0.));
#123 = ADVANCED_FACE('',(#124),#149,.F.);
#124 = FACE_BOUND('',#125,.F.);
#125 = EDGE_LOOP('',(#126,#136,#142,#143));
#126 = ORIENTED_EDGE('',*,*,#127,.T.);
#127 = EDGE_CURVE('',#128,#130,#132,.T.);
#128 = VERTEX_POINT('',#129);
#129 = CARTESIAN_POINT('',(155.5647,-110.2461,0.));
#130 = VERTEX_POINT('',#131);
#131 = CARTESIAN_POINT('',(155.5647,-110.2461,-0.19));
#132 = LINE('',#133,#134);
#133 = CARTESIAN_POINT('',(155.5647,-110.2461,0.));
#134 = VECTOR('',#135,1.);
#135 = DIRECTION('',(0.,0.,-1.));
#136 = ORIENTED_EDGE('',*,*,#137,.T.);
#137 = EDGE_CURVE('',#130,#97,#138,.T.);
#138 = LINE('',#139,#140);
#139 = CARTESIAN_POINT('',(155.5647,-110.2461,-0.19));
#140 = VECTOR('',#141,1.);
#141 = DIRECTION('',(-1.,0.,0.));
#142 = ORIENTED_EDGE('',*,*,#94,.F.);
#143 = ORIENTED_EDGE('',*,*,#144,.F.);
#144 = EDGE_CURVE('',#128,#95,#145,.T.);
#145 = LINE('',#146,#147);
#146 = CARTESIAN_POINT('',(155.5647,-110.2461,0.));
#147 = VECTOR('',#148,1.);
#148 = DIRECTION('',(-1.,0.,0.));
#149 = PLANE('',#150);
#150 = AXIS2_PLACEMENT_3D('',#151,#152,#153);
#151 = CARTESIAN_POINT('',(155.5647,-110.2461,0.));
#152 = DIRECTION('',(0.,1.,0.));
#153 = DIRECTION('',(-1.,0.,0.));
#154 = ADVANCED_FACE('',(#155),#182,.T.);
#155 = FACE_BOUND('',#156,.F.);
#156 = EDGE_LOOP('',(#157,#167,#174,#175));
#157 = ORIENTED_EDGE('',*,*,#158,.T.);
#158 = EDGE_CURVE('',#159,#161,#163,.T.);
#159 = VERTEX_POINT('',#160);
#160 = CARTESIAN_POINT('',(155.7147,-110.0961,0.));
#161 = VERTEX_POINT('',#162);
#162 = CARTESIAN_POINT('',(155.7147,-110.0961,-0.19));
#163 = LINE('',#164,#165);
#164 = CARTESIAN_POINT('',(155.7147,-110.0961,0.));
#165 = VECTOR('',#166,1.);
#166 = DIRECTION('',(0.,0.,-1.));
#167 = ORIENTED_EDGE('',*,*,#168,.T.);
#168 = EDGE_CURVE('',#161,#130,#169,.T.);
#169 = CIRCLE('',#170,0.150000058649);
#170 = AXIS2_PLACEMENT_3D('',#171,#172,#173);
#171 = CARTESIAN_POINT('',(155.56469994135,-110.0960999413,-0.19));
#172 = DIRECTION('',(0.,0.,-1.));
#173 = DIRECTION('',(1.,-3.90995408976E-07,0.));
#174 = ORIENTED_EDGE('',*,*,#127,.F.);
#175 = ORIENTED_EDGE('',*,*,#176,.F.);
#176 = EDGE_CURVE('',#159,#128,#177,.T.);
#177 = CIRCLE('',#178,0.150000058649);
#178 = AXIS2_PLACEMENT_3D('',#179,#180,#181);
#179 = CARTESIAN_POINT('',(155.56469994135,-110.0960999413,0.));
#180 = DIRECTION('',(0.,0.,-1.));
#181 = DIRECTION('',(1.,-3.90995408976E-07,0.));
#182 = CYLINDRICAL_SURFACE('',#183,0.150000058649);
#183 = AXIS2_PLACEMENT_3D('',#184,#185,#186);
#184 = CARTESIAN_POINT('',(155.56469994135,-110.0960999413,0.));
#185 = DIRECTION('',(-0.,-0.,1.));
#186 = DIRECTION('',(1.,-3.90995408976E-07,0.));
#187 = ADVANCED_FACE('',(#188),#213,.F.);
#188 = FACE_BOUND('',#189,.F.);
#189 = EDGE_LOOP('',(#190,#200,#206,#207));
#190 = ORIENTED_EDGE('',*,*,#191,.T.);
#191 = EDGE_CURVE('',#192,#194,#196,.T.);
#192 = VERTEX_POINT('',#193);
#193 = CARTESIAN_POINT('',(155.7147,-106.7461,0.));
#194 = VERTEX_POINT('',#195);
#195 = CARTESIAN_POINT('',(155.7147,-106.7461,-0.19));
#196 = LINE('',#197,#198);
#197 = CARTESIAN_POINT('',(155.7147,-106.7461,0.));
#198 = VECTOR('',#199,1.);
#199 = DIRECTION('',(0.,0.,-1.));
#200 = ORIENTED_EDGE('',*,*,#201,.T.);
#201 = EDGE_CURVE('',#194,#161,#202,.T.);
#202 = LINE('',#203,#204);
#203 = CARTESIAN_POINT('',(155.7147,-106.7461,-0.19));
#204 = VECTOR('',#205,1.);
#205 = DIRECTION('',(0.,-1.,0.));
#206 = ORIENTED_EDGE('',*,*,#158,.F.);
#207 = ORIENTED_EDGE('',*,*,#208,.F.);
#208 = EDGE_CURVE('',#192,#159,#209,.T.);
#209 = LINE('',#210,#211);
#210 = CARTESIAN_POINT('',(155.7147,-106.7461,0.));
#211 = VECTOR('',#212,1.);
#212 = DIRECTION('',(0.,-1.,0.));
#213 = PLANE('',#214);
#214 = AXIS2_PLACEMENT_3D('',#215,#216,#217);
#215 = CARTESIAN_POINT('',(155.7147,-106.7461,0.));
#216 = DIRECTION('',(-1.,-0.,-0.));
#217 = DIRECTION('',(0.,-1.,0.));
#218 = ADVANCED_FACE('',(#219),#244,.F.);
#219 = FACE_BOUND('',#220,.F.);
#220 = EDGE_LOOP('',(#221,#231,#237,#238));
#221 = ORIENTED_EDGE('',*,*,#222,.T.);
#222 = EDGE_CURVE('',#223,#225,#227,.T.);
#223 = VERTEX_POINT('',#224);
#224 = CARTESIAN_POINT('',(155.7147,-100.1421,0.));
#225 = VERTEX_POINT('',#226);
#226 = CARTESIAN_POINT('',(155.7147,-100.1421,-0.19));
#227 = LINE('',#228,#229);
#228 = CARTESIAN_POINT('',(155.7147,-100.1421,0.));
#229 = VECTOR('',#230,1.);
#230 = DIRECTION('',(0.,0.,-1.));
#231 = ORIENTED_EDGE('',*,*,#232,.T.);
#232 = EDGE_CURVE('',#225,#194,#233,.T.);
#233 = LINE('',#234,#235);
#234 = CARTESIAN_POINT('',(155.7147,-100.1421,-0.19));
#235 = VECTOR('',#236,1.);
#236 = DIRECTION('',(0.,-1.,0.));
#237 = ORIENTED_EDGE('',*,*,#191,.F.);
#238 = ORIENTED_EDGE('',*,*,#239,.F.);
#239 = EDGE_CURVE('',#223,#192,#240,.T.);
#240 = LINE('',#241,#242);
#241 = CARTESIAN_POINT('',(155.7147,-100.1421,0.));
#242 = VECTOR('',#243,1.);
#243 = DIRECTION('',(0.,-1.,0.));
#244 = PLANE('',#245);
#245 = AXIS2_PLACEMENT_3D('',#246,#247,#248);
#246 = CARTESIAN_POINT('',(155.7147,-100.1421,0.));
#247 = DIRECTION('',(-1.,-0.,-0.));
#248 = DIRECTION('',(0.,-1.,0.));
#249 = ADVANCED_FACE('',(#250),#277,.T.);
#250 = FACE_BOUND('',#251,.F.);
#251 = EDGE_LOOP('',(#252,#262,#269,#270));
#252 = ORIENTED_EDGE('',*,*,#253,.T.);
#253 = EDGE_CURVE('',#254,#256,#258,.T.);
#254 = VERTEX_POINT('',#255);
#255 = CARTESIAN_POINT('',(155.3337,-99.7611,0.));
#256 = VERTEX_POINT('',#257);
#257 = CARTESIAN_POINT('',(155.3337,-99.7611,-0.19));
#258 = LINE('',#259,#260);
#259 = CARTESIAN_POINT('',(155.3337,-99.7611,0.));
#260 = VECTOR('',#261,1.);
#261 = DIRECTION('',(0.,0.,-1.));
#262 = ORIENTED_EDGE('',*,*,#263,.T.);
#263 = EDGE_CURVE('',#256,#225,#264,.T.);
#264 = CIRCLE('',#265,0.380998919858);
#265 = AXIS2_PLACEMENT_3D('',#266,#267,#268);
#266 = CARTESIAN_POINT('',(155.33370108014,-100.1420989198,-0.19));
#267 = DIRECTION('',(0.,0.,-1.));
#268 = DIRECTION('',(-2.835031554568E-06,0.999999999996,0.));
#269 = ORIENTED_EDGE('',*,*,#222,.F.);
#270 = ORIENTED_EDGE('',*,*,#271,.F.);
#271 = EDGE_CURVE('',#254,#223,#272,.T.);
#272 = CIRCLE('',#273,0.380998919858);
#273 = AXIS2_PLACEMENT_3D('',#274,#275,#276);
#274 = CARTESIAN_POINT('',(155.33370108014,-100.1420989198,0.));
#275 = DIRECTION('',(0.,0.,-1.));
#276 = DIRECTION('',(-2.835031554568E-06,0.999999999996,0.));
#277 = CYLINDRICAL_SURFACE('',#278,0.380998919858);
#278 = AXIS2_PLACEMENT_3D('',#279,#280,#281);
#279 = CARTESIAN_POINT('',(155.33370108014,-100.1420989198,0.));
#280 = DIRECTION('',(-0.,-0.,1.));
#281 = DIRECTION('',(-2.835031554568E-06,0.999999999996,0.));
#282 = ADVANCED_FACE('',(#283),#308,.F.);
#283 = FACE_BOUND('',#284,.F.);
#284 = EDGE_LOOP('',(#285,#295,#301,#302));
#285 = ORIENTED_EDGE('',*,*,#286,.T.);
#286 = EDGE_CURVE('',#287,#289,#291,.T.);
#287 = VERTEX_POINT('',#288);
#288 = CARTESIAN_POINT('',(142.1765,-99.7611,0.));
#289 = VERTEX_POINT('',#290);
#290 = CARTESIAN_POINT('',(142.1765,-99.7611,-0.19));
#291 = LINE('',#292,#293);
#292 = CARTESIAN_POINT('',(142.1765,-99.7611,0.));
#293 = VECTOR('',#294,1.);
#294 = DIRECTION('',(0.,0.,-1.));
#295 = ORIENTED_EDGE('',*,*,#296,.T.);
#296 = EDGE_CURVE('',#289,#256,#297,.T.);
#297 = LINE('',#298,#299);
#298 = CARTESIAN_POINT('',(142.1765,-99.7611,-0.19));
#299 = VECTOR('',#300,1.);
#300 = DIRECTION('',(1.,-1.080081986684E-15,0.));
#301 = ORIENTED_EDGE('',*,*,#253,.F.);
#302 = ORIENTED_EDGE('',*,*,#303,.F.);
#303 = EDGE_CURVE('',#287,#254,#304,.T.);
#304 = LINE('',#305,#306);
#305 = CARTESIAN_POINT('',(142.1765,-99.7611,0.));
#306 = VECTOR('',#307,1.);
#307 = DIRECTION('',(1.,-1.080081986684E-15,0.));
#308 = PLANE('',#309);
#309 = AXIS2_PLACEMENT_3D('',#310,#311,#312);
#310 = CARTESIAN_POINT('',(142.1765,-99.7611,0.));
#311 = DIRECTION('',(-1.080081986684E-15,-1.,-0.));
#312 = DIRECTION('',(1.,-1.080081986684E-15,0.));
#313 = ADVANCED_FACE('',(#314),#341,.T.);
#314 = FACE_BOUND('',#315,.F.);
#315 = EDGE_LOOP('',(#316,#326,#333,#334));
#316 = ORIENTED_EDGE('',*,*,#317,.T.);
#317 = EDGE_CURVE('',#318,#320,#322,.T.);
#318 = VERTEX_POINT('',#319);
#319 = CARTESIAN_POINT('',(141.2875,-100.6501,0.));
#320 = VERTEX_POINT('',#321);
#321 = CARTESIAN_POINT('',(141.2875,-100.6501,-0.19));
#322 = LINE('',#323,#324);
#323 = CARTESIAN_POINT('',(141.2875,-100.6501,0.));
#324 = VECTOR('',#325,1.);
#325 = DIRECTION('',(0.,0.,-1.));
#326 = ORIENTED_EDGE('',*,*,#327,.T.);
#327 = EDGE_CURVE('',#320,#289,#328,.T.);
#328 = CIRCLE('',#329,0.888999755798);
#329 = AXIS2_PLACEMENT_3D('',#330,#331,#332);
#330 = CARTESIAN_POINT('',(142.17649975579,-100.6500997557,-0.19));
#331 = DIRECTION('',(0.,0.,-1.));
#332 = DIRECTION('',(-1.,-2.746930837036E-07,-0.));
#333 = ORIENTED_EDGE('',*,*,#286,.F.);
#334 = ORIENTED_EDGE('',*,*,#335,.F.);
#335 = EDGE_CURVE('',#318,#287,#336,.T.);
#336 = CIRCLE('',#337,0.888999755798);
#337 = AXIS2_PLACEMENT_3D('',#338,#339,#340);
#338 = CARTESIAN_POINT('',(142.17649975579,-100.6500997557,0.));
#339 = DIRECTION('',(0.,0.,-1.));
#340 = DIRECTION('',(-1.,-2.746930837036E-07,-0.));
#341 = CYLINDRICAL_SURFACE('',#342,0.888999755798);
#342 = AXIS2_PLACEMENT_3D('',#343,#344,#345);
#343 = CARTESIAN_POINT('',(142.17649975579,-100.6500997557,0.));
#344 = DIRECTION('',(-0.,-0.,1.));
#345 = DIRECTION('',(-1.,-2.746930837036E-07,-0.));
#346 = ADVANCED_FACE('',(#347),#372,.F.);
#347 = FACE_BOUND('',#348,.F.);
#348 = EDGE_LOOP('',(#349,#359,#365,#366));
#349 = ORIENTED_EDGE('',*,*,#350,.T.);
#350 = EDGE_CURVE('',#351,#353,#355,.T.);
#351 = VERTEX_POINT('',#352);
#352 = CARTESIAN_POINT('',(141.2875,-104.5871,0.));
#353 = VERTEX_POINT('',#354);
#354 = CARTESIAN_POINT('',(141.2875,-104.5871,-0.19));
#355 = LINE('',#356,#357);
#356 = CARTESIAN_POINT('',(141.2875,-104.5871,0.));
#357 = VECTOR('',#358,1.);
#358 = DIRECTION('',(0.,0.,-1.));
#359 = ORIENTED_EDGE('',*,*,#360,.T.);
#360 = EDGE_CURVE('',#353,#320,#361,.T.);
#361 = LINE('',#362,#363);
#362 = CARTESIAN_POINT('',(141.2875,-104.5871,-0.19));
#363 = VECTOR('',#364,1.);
#364 = DIRECTION('',(0.,1.,0.));
#365 = ORIENTED_EDGE('',*,*,#317,.F.);
#366 = ORIENTED_EDGE('',*,*,#367,.F.);
#367 = EDGE_CURVE('',#351,#318,#368,.T.);
#368 = LINE('',#369,#370);
#369 = CARTESIAN_POINT('',(141.2875,-104.5871,0.));
#370 = VECTOR('',#371,1.);
#371 = DIRECTION('',(0.,1.,0.));
#372 = PLANE('',#373);
#373 = AXIS2_PLACEMENT_3D('',#374,#375,#376);
#374 = CARTESIAN_POINT('',(141.2875,-104.5871,0.));
#375 = DIRECTION('',(1.,-0.,0.));
#376 = DIRECTION('',(0.,1.,0.));
#377 = ADVANCED_FACE('',(#378),#405,.T.);
#378 = FACE_BOUND('',#379,.F.);
#379 = EDGE_LOOP('',(#380,#390,#397,#398));
#380 = ORIENTED_EDGE('',*,*,#381,.T.);
#381 = EDGE_CURVE('',#382,#384,#386,.T.);
#382 = VERTEX_POINT('',#383);
#383 = CARTESIAN_POINT('',(142.1765,-105.4761,0.));
#384 = VERTEX_POINT('',#385);
#385 = CARTESIAN_POINT('',(142.1765,-105.4761,-0.19));
#386 = LINE('',#387,#388);
#387 = CARTESIAN_POINT('',(142.1765,-105.4761,0.));
#388 = VECTOR('',#389,1.);
#389 = DIRECTION('',(0.,0.,-1.));
#390 = ORIENTED_EDGE('',*,*,#391,.T.);
#391 = EDGE_CURVE('',#384,#353,#392,.T.);
#392 = CIRCLE('',#393,0.888999755798);
#393 = AXIS2_PLACEMENT_3D('',#394,#395,#396);
#394 = CARTESIAN_POINT('',(142.17649975579,-104.5871002442,-0.19));
#395 = DIRECTION('',(0.,0.,-1.));
#396 = DIRECTION('',(2.746930837036E-07,-1.,0.));
#397 = ORIENTED_EDGE('',*,*,#350,.F.);
#398 = ORIENTED_EDGE('',*,*,#399,.F.);
#399 = EDGE_CURVE('',#382,#351,#400,.T.);
#400 = CIRCLE('',#401,0.888999755798);
#401 = AXIS2_PLACEMENT_3D('',#402,#403,#404);
#402 = CARTESIAN_POINT('',(142.17649975579,-104.5871002442,0.));
#403 = DIRECTION('',(0.,0.,-1.));
#404 = DIRECTION('',(2.746930837036E-07,-1.,0.));
#405 = CYLINDRICAL_SURFACE('',#406,0.888999755798);
#406 = AXIS2_PLACEMENT_3D('',#407,#408,#409);
#407 = CARTESIAN_POINT('',(142.17649975579,-104.5871002442,0.));
#408 = DIRECTION('',(-0.,-0.,1.));
#409 = DIRECTION('',(2.746930837036E-07,-1.,0.));
#410 = ADVANCED_FACE('',(#411),#436,.F.);
#411 = FACE_BOUND('',#412,.F.);
#412 = EDGE_LOOP('',(#413,#423,#429,#430));
#413 = ORIENTED_EDGE('',*,*,#414,.T.);
#414 = EDGE_CURVE('',#415,#417,#419,.T.);
#415 = VERTEX_POINT('',#416);
#416 = CARTESIAN_POINT('',(144.7165,-105.4761,0.));
#417 = VERTEX_POINT('',#418);
#418 = CARTESIAN_POINT('',(144.7165,-105.4761,-0.19));
#419 = LINE('',#420,#421);
#420 = CARTESIAN_POINT('',(144.7165,-105.4761,0.));
#421 = VECTOR('',#422,1.);
#422 = DIRECTION('',(0.,0.,-1.));
#423 = ORIENTED_EDGE('',*,*,#424,.T.);
#424 = EDGE_CURVE('',#417,#384,#425,.T.);
#425 = LINE('',#426,#427);
#426 = CARTESIAN_POINT('',(144.7165,-105.4761,-0.19));
#427 = VECTOR('',#428,1.);
#428 = DIRECTION('',(-1.,0.,0.));
#429 = ORIENTED_EDGE('',*,*,#381,.F.);
#430 = ORIENTED_EDGE('',*,*,#431,.F.);
#431 = EDGE_CURVE('',#415,#382,#432,.T.);
#432 = LINE('',#433,#434);
#433 = CARTESIAN_POINT('',(144.7165,-105.4761,0.));
#434 = VECTOR('',#435,1.);
#435 = DIRECTION('',(-1.,0.,0.));
#436 = PLANE('',#437);
#437 = AXIS2_PLACEMENT_3D('',#438,#439,#440);
#438 = CARTESIAN_POINT('',(144.7165,-105.4761,0.));
#439 = DIRECTION('',(0.,1.,0.));
#440 = DIRECTION('',(-1.,0.,0.));
#441 = ADVANCED_FACE('',(#442),#469,.F.);
#442 = FACE_BOUND('',#443,.T.);
#443 = EDGE_LOOP('',(#444,#445,#454,#462));
#444 = ORIENTED_EDGE('',*,*,#414,.T.);
#445 = ORIENTED_EDGE('',*,*,#446,.T.);
#446 = EDGE_CURVE('',#417,#447,#449,.T.);
#447 = VERTEX_POINT('',#448);
#448 = CARTESIAN_POINT('',(145.3515,-106.1111,-0.19));
#449 = CIRCLE('',#450,0.634999337826);
#450 = AXIS2_PLACEMENT_3D('',#451,#452,#453);
#451 = CARTESIAN_POINT('',(144.71650066217,-106.1110993378,-0.19));
#452 = DIRECTION('',(0.,0.,-1.));
#453 = DIRECTION('',(-1.042794993938E-06,0.999999999999,0.));
#454 = ORIENTED_EDGE('',*,*,#455,.F.);
#455 = EDGE_CURVE('',#456,#447,#458,.T.);
#456 = VERTEX_POINT('',#457);
#457 = CARTESIAN_POINT('',(145.3515,-106.1111,0.));
#458 = LINE('',#459,#460);
#459 = CARTESIAN_POINT('',(145.3515,-106.1111,0.));
#460 = VECTOR('',#461,1.);
#461 = DIRECTION('',(0.,0.,-1.));
#462 = ORIENTED_EDGE('',*,*,#463,.F.);
#463 = EDGE_CURVE('',#415,#456,#464,.T.);
#464 = CIRCLE('',#465,0.634999337826);
#465 = AXIS2_PLACEMENT_3D('',#466,#467,#468);
#466 = CARTESIAN_POINT('',(144.71650066217,-106.1110993378,0.));
#467 = DIRECTION('',(0.,0.,-1.));
#468 = DIRECTION('',(-1.042794993938E-06,0.999999999999,0.));
#469 = CYLINDRICAL_SURFACE('',#470,0.634999337826);
#470 = AXIS2_PLACEMENT_3D('',#471,#472,#473);
#471 = CARTESIAN_POINT('',(144.71650066217,-106.1110993378,0.));
#472 = DIRECTION('',(-0.,-0.,1.));
#473 = DIRECTION('',(-1.042794993938E-06,0.999999999999,0.));
#474 = ADVANCED_FACE('',(#475),#491,.F.);
#475 = FACE_BOUND('',#476,.F.);
#476 = EDGE_LOOP('',(#477,#478,#484,#485));
#477 = ORIENTED_EDGE('',*,*,#21,.T.);
#478 = ORIENTED_EDGE('',*,*,#479,.T.);
#479 = EDGE_CURVE('',#24,#447,#480,.T.);
#480 = LINE('',#481,#482);
#481 = CARTESIAN_POINT('',(150.1013,-106.1111,-0.19));
#482 = VECTOR('',#483,1.);
#483 = DIRECTION('',(-1.,0.,0.));
#484 = ORIENTED_EDGE('',*,*,#455,.F.);
#485 = ORIENTED_EDGE('',*,*,#486,.F.);
#486 = EDGE_CURVE('',#22,#456,#487,.T.);
#487 = LINE('',#488,#489);
#488 = CARTESIAN_POINT('',(150.1013,-106.1111,0.));
#489 = VECTOR('',#490,1.);
#490 = DIRECTION('',(-1.,0.,0.));
#491 = PLANE('',#492);
#492 = AXIS2_PLACEMENT_3D('',#493,#494,#495);
#493 = CARTESIAN_POINT('',(150.1013,-106.1111,0.));
#494 = DIRECTION('',(0.,1.,0.));
#495 = DIRECTION('',(-1.,0.,0.));
#496 = ADVANCED_FACE('',(#497),#514,.T.);
#497 = FACE_BOUND('',#498,.T.);
#498 = EDGE_LOOP('',(#499,#500,#501,#502,#503,#504,#505,#506,#507,#508,
    #509,#510,#511,#512,#513));
#499 = ORIENTED_EDGE('',*,*,#48,.T.);
#500 = ORIENTED_EDGE('',*,*,#80,.T.);
#501 = ORIENTED_EDGE('',*,*,#112,.F.);
#502 = ORIENTED_EDGE('',*,*,#144,.F.);
#503 = ORIENTED_EDGE('',*,*,#176,.F.);
#504 = ORIENTED_EDGE('',*,*,#208,.F.);
#505 = ORIENTED_EDGE('',*,*,#239,.F.);
#506 = ORIENTED_EDGE('',*,*,#271,.F.);
#507 = ORIENTED_EDGE('',*,*,#303,.F.);
#508 = ORIENTED_EDGE('',*,*,#335,.F.);
#509 = ORIENTED_EDGE('',*,*,#367,.F.);
#510 = ORIENTED_EDGE('',*,*,#399,.F.);
#511 = ORIENTED_EDGE('',*,*,#431,.F.);
#512 = ORIENTED_EDGE('',*,*,#463,.T.);
#513 = ORIENTED_EDGE('',*,*,#486,.F.);
#514 = PLANE('',#515);
#515 = AXIS2_PLACEMENT_3D('',#516,#517,#518);
#516 = CARTESIAN_POINT('',(149.45293120479,-104.1743287855,0.));
#517 = DIRECTION('',(0.,0.,1.));
#518 = DIRECTION('',(1.,0.,-0.));
#519 = ADVANCED_FACE('',(#520),#537,.F.);
#520 = FACE_BOUND('',#521,.F.);
#521 = EDGE_LOOP('',(#522,#523,#524,#525,#526,#527,#528,#529,#530,#531,
    #532,#533,#534,#535,#536));
#522 = ORIENTED_EDGE('',*,*,#31,.T.);
#523 = ORIENTED_EDGE('',*,*,#64,.T.);
#524 = ORIENTED_EDGE('',*,*,#104,.F.);
#525 = ORIENTED_EDGE('',*,*,#137,.F.);
#526 = ORIENTED_EDGE('',*,*,#168,.F.);
#527 = ORIENTED_EDGE('',*,*,#201,.F.);
#528 = ORIENTED_EDGE('',*,*,#232,.F.);
#529 = ORIENTED_EDGE('',*,*,#263,.F.);
#530 = ORIENTED_EDGE('',*,*,#296,.F.);
#531 = ORIENTED_EDGE('',*,*,#327,.F.);
#532 = ORIENTED_EDGE('',*,*,#360,.F.);
#533 = ORIENTED_EDGE('',*,*,#391,.F.);
#534 = ORIENTED_EDGE('',*,*,#424,.F.);
#535 = ORIENTED_EDGE('',*,*,#446,.T.);
#536 = ORIENTED_EDGE('',*,*,#479,.F.);
#537 = PLANE('',#538);
#538 = AXIS2_PLACEMENT_3D('',#539,#540,#541);
#539 = CARTESIAN_POINT('',(149.45293120479,-104.1743287855,-0.19));
#540 = DIRECTION('',(0.,0.,1.));
#541 = DIRECTION('',(1.,0.,-0.));
#542 = ( GEOMETRIC_REPRESENTATION_CONTEXT(3) 
GLOBAL_UNCERTAINTY_ASSIGNED_CONTEXT((#546)) GLOBAL_UNIT_ASSIGNED_CONTEXT
((#543,#544,#545)) REPRESENTATION_CONTEXT('Context #1',
  '3D Context with UNIT and UNCERTAINTY') );
#543 = ( LENGTH_UNIT() NAMED_UNIT(*) SI_UNIT(.MILLI.,.METRE.) );
#544 = ( NAMED_UNIT(*) PLANE_ANGLE_UNIT() SI_UNIT($,.RADIAN.) );
#545 = ( NAMED_UNIT(*) SI_UNIT($,.STERADIAN.) SOLID_ANGLE_UNIT() );
#546 = UNCERTAINTY_MEASURE_WITH_UNIT(LENGTH_MEASURE(1.E-07),#543,
  'distance_accuracy_value','confusion accuracy');
#547 = PRODUCT_RELATED_PRODUCT_CATEGORY('part',$,(#7));
#548 = MECHANICAL_DESIGN_GEOMETRIC_PRESENTATION_REPRESENTATION('',(#549)
  ,#542);
#549 = STYLED_ITEM('color',(#550),#15);
#550 = PRESENTATION_STYLE_ASSIGNMENT((#551,#557));
#551 = SURFACE_STYLE_USAGE(.BOTH.,#552);
#552 = SURFACE_SIDE_STYLE('',(#553));
#553 = SURFACE_STYLE_FILL_AREA(#554);
#554 = FILL_AREA_STYLE('',(#555));
#555 = FILL_AREA_STYLE_COLOUR('',#556);
#556 = COLOUR_RGB('',0.199999998682,0.600000020288,0.399999997426);
#557 = CURVE_STYLE('',#558,POSITIVE_LENGTH_MEASURE(0.1),#559);
#558 = DRAUGHTING_PRE_DEFINED_CURVE_FONT('continuous');
#559 = COLOUR_RGB('',9.803921802644E-02,9.803921802644E-02,
  9.803921802644E-02);
ENDSEC;
END-ISO-10303-21;
