ISO-10303-21;
HEADER;
FILE_DESCRIPTION (( 'STEP AP214' ),
    '1' );
FILE_NAME ('SOT23.STEP',
    '2018-01-25T01:47:49',
    ( 'admin' ),
    ( 'Microsoft' ),
    'SwSTEP 2.0',
    'SolidWorks 2015',
    '' );
FILE_SCHEMA (( 'AUTOMOTIVE_DESIGN' ));
ENDSEC;

DATA;
#1 = DIRECTION ( 'NONE',  ( -1.000000000000000000, -0.0000000000000000000, -0.0000000000000000000 ) ) ;
#2 = ADVANCED_FACE ( 'NONE', ( #1046 ), #1056, .T. ) ;
#3 = ADVANCED_FACE ( 'NONE', ( #516 ), #310, .T. ) ;
#4 = DIRECTION ( 'NONE',  ( 0.0000000000000000000, 0.0000000000000000000, 1.000000000000000000 ) ) ;
#5 = ADVANCED_FACE ( 'NONE', ( #1180 ), #337, .F. ) ;
#6 = CARTESIAN_POINT ( 'NONE',  ( -0.7500000000000000000, -0.9911404091243630800, 0.3499999999999999800 ) ) ;
#7 = VERTEX_POINT ( 'NONE', #17 ) ;
#8 = DIRECTION ( 'NONE',  ( -0.0000000000000000000, 0.0000000000000000000, 1.000000000000000000 ) ) ;
#9 = AXIS2_PLACEMENT_3D ( 'NONE', #1107, #1114, #1117 ) ;
#10 = ADVANCED_FACE ( 'NONE', ( #1059 ), #438, .F. ) ;
#11 = ORIENTED_EDGE ( 'NONE', *, *, #375, .F. ) ;
#12 = CARTESIAN_POINT ( 'NONE',  ( 1.149999999999999900, -1.200000000000000000, 0.0000000000000000000 ) ) ;
#13 = VERTEX_POINT ( 'NONE', #400 ) ;
#14 = ADVANCED_FACE ( 'NONE', ( #1058 ), #1166, .F. ) ;
#15 = AXIS2_PLACEMENT_3D ( 'NONE', #775, #721, #795 ) ;
#16 = ADVANCED_FACE ( 'NONE', ( #1054 ), #739, .F. ) ;
#17 = CARTESIAN_POINT ( 'NONE',  ( 0.2000000000000000100, 1.200000000000000000, 0.1499999999999999900 ) ) ;
#18 =( NAMED_UNIT ( * ) SI_UNIT ( $, .STERADIAN. ) SOLID_ANGLE_UNIT ( ) );
#19 = ADVANCED_FACE ( 'NONE', ( #1176 ), #1213, .T. ) ;
#20 = DIRECTION ( 'NONE',  ( 1.000000000000000000, 0.0000000000000000000, 0.0000000000000000000 ) ) ;
#21 = EDGE_LOOP ( 'NONE', ( #1162, #1147, #1157, #1174 ) ) ;
#22 = PLANE ( 'NONE',  #991 ) ;
#23 = ORIENTED_EDGE ( 'NONE', *, *, #692, .T. ) ;
#24 = CARTESIAN_POINT ( 'NONE',  ( -0.7500000000000000000, -0.6622479918492938400, 0.2302929498360173400 ) ) ;
#25 = CARTESIAN_POINT ( 'NONE',  ( -0.7500000000000000000, -0.6368767004711106700, 0.2999999999999805000 ) ) ;
#26 = VERTEX_POINT ( 'NONE', #259 ) ;
#27 = AXIS2_PLACEMENT_3D ( 'NONE', #728, #695, #757 ) ;
#28 = ORIENTED_EDGE ( 'NONE', *, *, #360, .T. ) ;
#29 = CARTESIAN_POINT ( 'NONE',  ( 0.0000000000000000000, -0.6150045345896303400, 0.05000000000000000300 ) ) ;
#30 = PLANE ( 'NONE',  #1011 ) ;
#31 = CARTESIAN_POINT ( 'NONE',  ( 1.449999999999999700, -0.6500000000000000200, 0.4499999999999804700 ) ) ;
#32 = AXIS2_PLACEMENT_3D ( 'NONE', #869, #700, #714 ) ;
#33 = CARTESIAN_POINT ( 'NONE',  ( 1.440199485377313200, -0.6401994853773135300, 0.3379796052687285600 ) ) ;
#34 = VERTEX_POINT ( 'NONE', #379 ) ;
#35 = VERTEX_POINT ( 'NONE', #344 ) ;
#36 = ORIENTED_EDGE ( 'NONE', *, *, #240, .T. ) ;
#37 = DIRECTION ( 'NONE',  ( 0.0000000000000000000, -0.3420201433256633300, 0.9396926207859103200 ) ) ;
#38 = AXIS2_PLACEMENT_3D ( 'NONE', #825, #669, #672 ) ;
#39 = DIRECTION ( 'NONE',  ( -0.0000000000000000000, 0.9396926207859104300, 0.3420201433256633800 ) ) ;
#40 = DIRECTION ( 'NONE',  ( 0.0000000000000000000, 0.0000000000000000000, 1.000000000000000000 ) ) ;
#41 = CARTESIAN_POINT ( 'NONE',  ( 0.2000000000000000100, 1.200000000000000000, 0.0000000000000000000 ) ) ;
#42 = AXIS2_PLACEMENT_3D ( 'NONE', #624, #931, #893 ) ;
#43 = VERTEX_POINT ( 'NONE', #363 ) ;
#44 = DIRECTION ( 'NONE',  ( 0.0000000000000000000, -1.000000000000000000, 0.0000000000000000000 ) ) ;
#45 = ORIENTED_EDGE ( 'NONE', *, *, #352, .T. ) ;
#46 = ORIENTED_EDGE ( 'NONE', *, *, #321, .T. ) ;
#47 = ORIENTED_EDGE ( 'NONE', *, *, #267, .T. ) ;
#48 = DIRECTION ( 'NONE',  ( 0.0000000000000000000, 0.0000000000000000000, 1.000000000000000000 ) ) ;
#49 = AXIS2_PLACEMENT_3D ( 'NONE', #605, #519, #629 ) ;
#50 = DIRECTION ( 'NONE',  ( -1.000000000000000000, -0.0000000000000000000, -0.0000000000000000000 ) ) ;
#51 = CARTESIAN_POINT ( 'NONE',  ( 0.2000000000000000100, 0.9917501570555787800, 0.1499999999999999400 ) ) ;
#52 = CARTESIAN_POINT ( 'NONE',  ( -1.149999999999999900, -0.9911404091243630800, 0.3499999999999999800 ) ) ;
#53 = DIRECTION ( 'NONE',  ( -0.0000000000000000000, -1.000000000000000000, -2.603128427748353100E-016 ) ) ;
#54 = ORIENTED_EDGE ( 'NONE', *, *, #399, .F. ) ;
#55 = VERTEX_POINT ( 'NONE', #398 ) ;
#56 = CARTESIAN_POINT ( 'NONE',  ( 1.149999999999999900, -0.9917501570555777900, 0.3499999999999999200 ) ) ;
#57 = DIRECTION ( 'NONE',  ( -1.000000000000000000, -0.0000000000000000000, -0.0000000000000000000 ) ) ;
#58 = ORIENTED_EDGE ( 'NONE', *, *, #299, .F. ) ;
#59 = ADVANCED_FACE ( 'NONE', ( #1061 ), #402, .F. ) ;
#60 = AXIS2_PLACEMENT_3D ( 'NONE', #571, #590, #600 ) ;
#61 = CARTESIAN_POINT ( 'NONE',  ( -1.415004534589630300, -0.6150045345896303400, 0.05000000000000000300 ) ) ;
#62 = PLANE ( 'NONE',  #924 ) ;
#63 = ADVANCED_FACE ( 'NONE', ( #1179 ), #420, .T. ) ;
#64 = DIRECTION ( 'NONE',  ( -1.000000000000000000, 0.0000000000000000000, 0.0000000000000000000 ) ) ;
#65 = AXIS2_PLACEMENT_3D ( 'NONE', #496, #555, #559 ) ;
#66 = ORIENTED_EDGE ( 'NONE', *, *, #180, .F. ) ;
#67 = ORIENTED_EDGE ( 'NONE', *, *, #197, .F. ) ;
#68 = VERTEX_POINT ( 'NONE', #499 ) ;
#69 = DIRECTION ( 'NONE',  ( 0.0000000000000000000, 0.0000000000000000000, 1.000000000000000000 ) ) ;
#70 = VERTEX_POINT ( 'NONE', #507 ) ;
#71 = PLANE ( 'NONE',  #1183 ) ;
#72 = AXIS2_PLACEMENT_3D ( 'NONE', #463, #493, #479 ) ;
#73 = ADVANCED_FACE ( 'NONE', ( #1165 ), #1068, .T. ) ;
#74 = DIRECTION ( 'NONE',  ( -1.000000000000000000, -0.0000000000000000000, 0.0000000000000000000 ) ) ;
#75 = CARTESIAN_POINT ( 'NONE',  ( -1.450000000000000000, -0.6500000000000000200, 0.4499999999999804700 ) ) ;
#76 = DIRECTION ( 'NONE',  ( 0.0000000000000000000, 0.0000000000000000000, 1.000000000000000000 ) ) ;
#77 = CARTESIAN_POINT ( 'NONE',  ( 0.2000000000000000100, 0.6622479918492938400, 0.2302929498360173400 ) ) ;
#78 = AXIS2_PLACEMENT_3D ( 'NONE', #373, #482, #484 ) ;
#79 = VERTEX_POINT ( 'NONE', #521 ) ;
#80 = CARTESIAN_POINT ( 'NONE',  ( -0.7500000000000000000, -0.9917501570555777900, 0.3499999999999999200 ) ) ;
#81 = ORIENTED_EDGE ( 'NONE', *, *, #305, .T. ) ;
#82 = DIRECTION ( 'NONE',  ( 0.0000000000000000000, 0.0000000000000000000, -1.000000000000000000 ) ) ;
#83 = VERTEX_POINT ( 'NONE', #540 ) ;
#84 = CARTESIAN_POINT ( 'NONE',  ( 0.2000000000000000100, 0.9917501570555777900, 0.3499999999999999200 ) ) ;
#85 = PLANE ( 'NONE',  #901 ) ;
#86 = DIRECTION ( 'NONE',  ( -1.000000000000000000, 0.0000000000000000000, -0.0000000000000000000 ) ) ;
#87 = AXIS2_PLACEMENT_3D ( 'NONE', #416, #1186, #449 ) ;
#88 = ADVANCED_FACE ( 'NONE', ( #1161 ), #1053, .F. ) ;
#89 = CARTESIAN_POINT ( 'NONE',  ( -1.401685193205004700, 0.6016851932050044600, 1.002240768664610000 ) ) ;
#90 = ORIENTED_EDGE ( 'NONE', *, *, #298, .T. ) ;
#91 = CARTESIAN_POINT ( 'NONE',  ( 0.2000000000000000100, 0.6622479918492938400, 0.2302929498360173400 ) ) ;
#92 = VERTEX_POINT ( 'NONE', #536 ) ;
#93 = ADVANCED_FACE ( 'NONE', ( #1062 ), #588, .F. ) ;
#94 = ORIENTED_EDGE ( 'NONE', *, *, #216, .F. ) ;
#95 = AXIS2_PLACEMENT_3D ( 'NONE', #656, #350, #356 ) ;
#96 = EDGE_LOOP ( 'NONE', ( #1269, #1271, #1275, #1276 ) ) ;
#97 = PRODUCT ( 'SOT23', 'SOT23', '', ( #987 ) ) ;
#98 = DIRECTION ( 'NONE',  ( 1.668003342285391300E-016, -1.000000000000000000, 0.0000000000000000000 ) ) ;
#99 = DIRECTION ( 'NONE',  ( 0.0000000000000000000, 0.0000000000000000000, 1.000000000000000000 ) ) ;
#100 = AXIS2_PLACEMENT_3D ( 'NONE', #699, #332, #316 ) ;
#101 = DIRECTION ( 'NONE',  ( 1.000000000000000000, 0.0000000000000000000, 0.0000000000000000000 ) ) ;
#102 = DIRECTION ( 'NONE',  ( -1.000000000000000000, 0.0000000000000000000, -0.0000000000000000000 ) ) ;
#103 = DIRECTION ( 'NONE',  ( 0.0000000000000000000, 0.0000000000000000000, 1.000000000000000000 ) ) ;
#104 = ORIENTED_EDGE ( 'NONE', *, *, #181, .T. ) ;
#105 = CARTESIAN_POINT ( 'NONE',  ( -0.7500000000000000000, -0.6500000000000001300, 0.4499999999999804700 ) ) ;
#106 = ORIENTED_EDGE ( 'NONE', *, *, #187, .F. ) ;
#107 = DIRECTION ( 'NONE',  ( -1.000000000000000000, -0.0000000000000000000, 0.0000000000000000000 ) ) ;
#108 = ORIENTED_EDGE ( 'NONE', *, *, #418, .F. ) ;
#109 = DIRECTION ( 'NONE',  ( -0.0000000000000000000, 0.9961946980917458800, 0.08715574274765482100 ) ) ;
#110 = CARTESIAN_POINT ( 'NONE',  ( 1.406255668237037700, 2.345639154727155200E-016, 0.9499999999999999600 ) ) ;
#111 = CARTESIAN_POINT ( 'NONE',  ( 0.2000000000000000100, 0.7783690145618099600, 0.3514989907064389200 ) ) ;
#112 = AXIS2_PLACEMENT_3D ( 'NONE', #741, #703, #706 ) ;
#113 = ORIENTED_EDGE ( 'NONE', *, *, #288, .F. ) ;
#114 = ORIENTED_EDGE ( 'NONE', *, *, #334, .F. ) ;
#115 = ORIENTED_EDGE ( 'NONE', *, *, #604, .F. ) ;
#116 = PLANE ( 'NONE',  #1121 ) ;
#117 = ORIENTED_EDGE ( 'NONE', *, *, #604, .T. ) ;
#118 = CARTESIAN_POINT ( 'NONE',  ( -0.7500000000000000000, -1.200000000000000000, 0.0000000000000000000 ) ) ;
#119 = DIRECTION ( 'NONE',  ( -0.0000000000000000000, 0.3420201433256632700, -0.9396926207859103200 ) ) ;
#120 = DIRECTION ( 'NONE',  ( -1.000000000000000000, 0.0000000000000000000, -0.0000000000000000000 ) ) ;
#121 = AXIS2_PLACEMENT_3D ( 'NONE', #287, #389, #760 ) ;
#122 = DIRECTION ( 'NONE',  ( 0.0000000000000000000, 0.3420201433256644900, 0.9396926207859098700 ) ) ;
#123 = DIRECTION ( 'NONE',  ( -1.000000000000000000, 0.0000000000000000000, -0.0000000000000000000 ) ) ;
#124 = ORIENTED_EDGE ( 'NONE', *, *, #288, .T. ) ;
#125 = CARTESIAN_POINT ( 'NONE',  ( -0.7500000000000000000, -0.9911404091243630800, 0.3499999999999999800 ) ) ;
#126 = ORIENTED_EDGE ( 'NONE', *, *, #155, .F. ) ;
#127 = ORIENTED_EDGE ( 'NONE', *, *, #424, .T. ) ;
#128 = ADVANCED_FACE ( 'NONE', ( #1072 ), #620, .F. ) ;
#129 = CARTESIAN_POINT ( 'NONE',  ( -1.149999999999999900, -1.200000000000000000, 0.1499999999999999900 ) ) ;
#130 = ADVANCED_FACE ( 'NONE', ( #1167 ), #610, .F. ) ;
#131 = VERTEX_POINT ( 'NONE', #644 ) ;
#132 = EDGE_LOOP ( 'NONE', ( #798, #803, #833, #1052 ) ) ;
#133 = PLANE ( 'NONE',  #1142 ) ;
#134 = ORIENTED_EDGE ( 'NONE', *, *, #281, .F. ) ;
#135 = ORIENTED_EDGE ( 'NONE', *, *, #443, .F. ) ;
#136 = AXIS2_PLACEMENT_3D ( 'NONE', #190, #327, #542 ) ;
#137 = CARTESIAN_POINT ( 'NONE',  ( -0.2000000000000000100, 0.6500000000000001300, 0.4499999999999804700 ) ) ;
#138 = ADVANCED_FACE ( 'NONE', ( #1173 ), #942, .F. ) ;
#139 = AXIS2_PLACEMENT_3D ( 'NONE', #639, #296, #597 ) ;
#140 = DIRECTION ( 'NONE',  ( 0.0000000000000000000, 0.0000000000000000000, 1.000000000000000000 ) ) ;
#141 = ADVANCED_FACE ( 'NONE', ( #1075 ), #658, .F. ) ;
#142 = CARTESIAN_POINT ( 'NONE',  ( 0.2000000000000000100, 0.9917501570555787800, 0.1499999999999999400 ) ) ;
#143 = AXIS2_PLACEMENT_3D ( 'NONE', #716, #1170, #1198 ) ;
#144 = ORIENTED_EDGE ( 'NONE', *, *, #155, .T. ) ;
#145 = CARTESIAN_POINT ( 'NONE',  ( -1.149999999999999900, -0.7783690145618101800, 0.3514989907064389700 ) ) ;
#146 = ORIENTED_EDGE ( 'NONE', *, *, #655, .T. ) ;
#147 = CARTESIAN_POINT ( 'NONE',  ( 0.7500000000000000000, -0.6368767004711106700, 0.2999999999999805000 ) ) ;
#148 = ADVANCED_FACE ( 'NONE', ( #524 ), #751, .F. ) ;
#149 = ORIENTED_EDGE ( 'NONE', *, *, #187, .T. ) ;
#150 = DIRECTION ( 'NONE',  ( 1.668003342285391300E-016, -1.000000000000000000, 0.0000000000000000000 ) ) ;
#151 = ADVANCED_FACE ( 'NONE', ( #1135 ), #785, .F. ) ;
#152 = CARTESIAN_POINT ( 'NONE',  ( 1.428137313534007200, 0.6281373135340073700, 0.2001083502148378000 ) ) ;
#153 = DIRECTION ( 'NONE',  ( -1.000000000000000000, -0.0000000000000000000, -0.0000000000000000000 ) ) ;
#154 = DIRECTION ( 'NONE',  ( -1.000000000000000000, -0.0000000000000000000, -0.0000000000000000000 ) ) ;
#155 = EDGE_CURVE ( 'NONE', #977, #55, #1146, .T. ) ;
#156 = ORIENTED_EDGE ( 'NONE', *, *, #193, .F. ) ;
#157 = CARTESIAN_POINT ( 'NONE',  ( 0.2000000000000000100, 0.9911404091243630800, 0.3499999999999999800 ) ) ;
#158 = ADVANCED_FACE ( 'NONE', ( #1131 ), #1152, .T. ) ;
#159 = EDGE_CURVE ( 'NONE', #543, #364, #1150, .T. ) ;
#160 = ORIENTED_EDGE ( 'NONE', *, *, #636, .T. ) ;
#161 = ORIENTED_EDGE ( 'NONE', *, *, #212, .F. ) ;
#162 = ORIENTED_EDGE ( 'NONE', *, *, #655, .F. ) ;
#163 = ADVANCED_FACE ( 'NONE', ( #1158 ), #830, .F. ) ;
#164 = CARTESIAN_POINT ( 'NONE',  ( -0.7500000000000000000, -0.6622479918492938400, 0.2302929498360173400 ) ) ;
#165 = EDGE_CURVE ( 'NONE', #7, #508, #1196, .T. ) ;
#166 = DIRECTION ( 'NONE',  ( 0.9961946980917458800, 1.661656085984018400E-016, 0.08715574274765461300 ) ) ;
#167 = CARTESIAN_POINT ( 'NONE',  ( -0.7500000000000000000, -1.200000000000000000, 0.1499999999999999900 ) ) ;
#168 = ADVANCED_FACE ( 'NONE', ( #1153 ), #925, .F. ) ;
#169 = DIRECTION ( 'NONE',  ( 1.000000000000000000, 0.0000000000000000000, 0.0000000000000000000 ) ) ;
#170 = ORIENTED_EDGE ( 'NONE', *, *, #193, .T. ) ;
#171 = CARTESIAN_POINT ( 'NONE',  ( -0.2000000000000000100, 0.9917501570555787800, 0.1499999999999999400 ) ) ;
#172 = EDGE_CURVE ( 'NONE', #450, #286, #1192, .T. ) ;
#173 = ORIENTED_EDGE ( 'NONE', *, *, #197, .T. ) ;
#174 = VERTEX_POINT ( 'NONE', #966 ) ;
#175 = EDGE_CURVE ( 'NONE', #978, #83, #1210, .T. ) ;
#176 = ORIENTED_EDGE ( 'NONE', *, *, #201, .F. ) ;
#177 = CARTESIAN_POINT ( 'NONE',  ( 1.415004534589629800, 0.6150045345896303400, 0.05000000000000000300 ) ) ;
#178 = CARTESIAN_POINT ( 'NONE',  ( -0.7500000000000000000, -1.200000000000000000, 0.1499999999999999900 ) ) ;
#179 = CARTESIAN_POINT ( 'NONE',  ( -1.149999999999999900, -0.7783690145618099600, 0.3514989907064389200 ) ) ;
#180 = EDGE_CURVE ( 'NONE', #450, #131, #1212, .T. ) ;
#181 = EDGE_CURVE ( 'NONE', #550, #304, #1205, .T. ) ;
#182 = DIRECTION ( 'NONE',  ( 0.0000000000000000000, 0.0000000000000000000, 1.000000000000000000 ) ) ;
#183 = CARTESIAN_POINT ( 'NONE',  ( -0.2000000000000000100, 0.6368767004711106700, 0.2999999999999805000 ) ) ;
#184 = ORIENTED_EDGE ( 'NONE', *, *, #692, .F. ) ;
#185 = CARTESIAN_POINT ( 'NONE',  ( -0.2000000000000000100, 0.9911404091243624100, 0.0000000000000000000 ) ) ;
#186 = ORIENTED_EDGE ( 'NONE', *, *, #201, .T. ) ;
#187 = EDGE_CURVE ( 'NONE', #349, #977, #1156, .T. ) ;
#188 = ORIENTED_EDGE ( 'NONE', *, *, #180, .T. ) ;
#189 = CARTESIAN_POINT ( 'NONE',  ( -0.7500000000000000000, -0.9911404091243624100, 0.0000000000000000000 ) ) ;
#190 = CARTESIAN_POINT ( 'NONE',  ( 0.0000000000000000000, -0.6062556682370379100, 0.9499999999999999600 ) ) ;
#191 = CARTESIAN_POINT ( 'NONE',  ( 0.2000000000000000100, 0.8038116328983958600, 0.2815959713348666900 ) ) ;
#192 = EDGE_CURVE ( 'NONE', #289, #511, #1216, .T. ) ;
#193 = EDGE_CURVE ( 'NONE', #349, #325, #1207, .T. ) ;
#194 = DIRECTION ( 'NONE',  ( 0.0000000000000000000, 0.3420201433256633300, 0.9396926207859103200 ) ) ;
#195 = ORIENTED_EDGE ( 'NONE', *, *, #172, .F. ) ;
#196 = ORIENTED_EDGE ( 'NONE', *, *, #641, .F. ) ;
#197 = EDGE_CURVE ( 'NONE', #131, #349, #1223, .T. ) ;
#198 = ORIENTED_EDGE ( 'NONE', *, *, #240, .F. ) ;
#199 = CARTESIAN_POINT ( 'NONE',  ( -1.149999999999999900, -0.9917501570555787800, 0.1499999999999999400 ) ) ;
#200 = ORIENTED_EDGE ( 'NONE', *, *, #636, .F. ) ;
#201 = EDGE_CURVE ( 'NONE', #131, #318, #1236, .T. ) ;
#202 = CARTESIAN_POINT ( 'NONE',  ( -1.450000000000000400, 0.6062556682370379100, 0.9499999999999999600 ) ) ;
#203 = EDGE_CURVE ( 'NONE', #7, #370, #1242, .T. ) ;
#204 = ADVANCED_FACE ( 'NONE', ( #1251 ), #952, .T. ) ;
#205 = CARTESIAN_POINT ( 'NONE',  ( -0.7500000000000000000, -0.6622479918492942800, 0.2302929498360173400 ) ) ;
#206 = ORIENTED_EDGE ( 'NONE', *, *, #172, .T. ) ;
#207 = VERTEX_POINT ( 'NONE', #1127 ) ;
#208 = VERTEX_POINT ( 'NONE', #1138 ) ;
#209 = EDGE_CURVE ( 'NONE', #345, #543, #954, .T. ) ;
#210 = DIRECTION ( 'NONE',  ( -0.0000000000000000000, 1.000000000000000000, -2.603128427748353100E-016 ) ) ;
#211 = ADVANCED_FACE ( 'NONE', ( #956 ), #1123, .T. ) ;
#212 = EDGE_CURVE ( 'NONE', #325, #55, #940, .T. ) ;
#213 = CARTESIAN_POINT ( 'NONE',  ( -1.406255668237038000, -0.6062556682370379100, 0.9499999999999999600 ) ) ;
#214 = ADVANCED_FACE ( 'NONE', ( #941 ), #1263, .F. ) ;
#215 = CARTESIAN_POINT ( 'NONE',  ( -0.7500000000000000000, -0.9917501570555787800, 0.1499999999999999400 ) ) ;
#216 = EDGE_CURVE ( 'NONE', #550, #450, #935, .T. ) ;
#217 = ORIENTED_EDGE ( 'NONE', *, *, #451, .T. ) ;
#218 = ORIENTED_EDGE ( 'NONE', *, *, #216, .T. ) ;
#219 = FILL_AREA_STYLE_COLOUR ( '', #749 ) ;
#220 = ADVANCED_FACE ( 'NONE', ( #932 ), #1278, .T. ) ;
#221 = ORIENTED_EDGE ( 'NONE', *, *, #382, .F. ) ;
#222 = DIRECTION ( 'NONE',  ( 0.0000000000000000000, 0.0000000000000000000, 1.000000000000000000 ) ) ;
#223 = EDGE_CURVE ( 'NONE', #429, #979, #921, .T. ) ;
#224 = EDGE_CURVE ( 'NONE', #577, #320, #937, .T. ) ;
#225 = ADVANCED_FACE ( 'NONE', ( #920 ), #71, .T. ) ;
#226 = DIRECTION ( 'NONE',  ( -0.0000000000000000000, 1.000000000000000000, -2.603128427748353100E-016 ) ) ;
#227 = CARTESIAN_POINT ( 'NONE',  ( 1.149999999999999900, -0.7783690145618101800, 0.3514989907064389700 ) ) ;
#228 = EDGE_CURVE ( 'NONE', #992, #511, #899, .T. ) ;
#229 = CARTESIAN_POINT ( 'NONE',  ( -1.440199485377313500, -0.6401994853773137500, 0.3379796052687285600 ) ) ;
#230 = ADVANCED_FACE ( 'NONE', ( #915 ), #133, .F. ) ;
#231 = EDGE_CURVE ( 'NONE', #1013, #992, #894, .T. ) ;
#232 = ORIENTED_EDGE ( 'NONE', *, *, #181, .F. ) ;
#233 = ORIENTED_EDGE ( 'NONE', *, *, #267, .F. ) ;
#234 = PRESENTATION_STYLE_ASSIGNMENT (( #1048 ) ) ;
#235 = CARTESIAN_POINT ( 'NONE',  ( 1.149999999999999900, -0.9917501570555787800, 0.1499999999999999400 ) ) ;
#236 = ORIENTED_EDGE ( 'NONE', *, *, #522, .F. ) ;
#237 = SURFACE_STYLE_FILL_AREA ( #1083 ) ;
#238 = ADVANCED_FACE ( 'NONE', ( #891 ), #883, .T. ) ;
#239 = DIRECTION ( 'NONE',  ( -0.0000000000000000000, -1.000000000000000000, -2.603128427748353100E-016 ) ) ;
#240 = EDGE_CURVE ( 'NONE', #286, #318, #895, .T. ) ;
#241 = PLANE ( 'NONE',  #811 ) ;
#242 = ADVANCED_FACE ( 'NONE', ( #880 ), #116, .T. ) ;
#243 = EDGE_CURVE ( 'NONE', #508, #528, #877, .T. ) ;
#244 = CLOSED_SHELL ( 'NONE', ( #336, #214, #158, #130, #303, #377, #461, #14, #470, #230, #225 ) ) ;
#245 = DIRECTION ( 'NONE',  ( 0.0000000000000000000, -0.9396926207859104300, 0.3420201433256633800 ) ) ;
#246 = EDGE_CURVE ( 'NONE', #385, #43, #897, .T. ) ;
#247 = ORIENTED_EDGE ( 'NONE', *, *, #557, .F. ) ;
#248 = DIRECTION ( 'NONE',  ( -1.000000000000000000, 0.0000000000000000000, -0.0000000000000000000 ) ) ;
#249 = ADVANCED_FACE ( 'NONE', ( #875 ), #433, .F. ) ;
#250 = ORIENTED_EDGE ( 'NONE', *, *, #702, .F. ) ;
#251 = UNCERTAINTY_MEASURE_WITH_UNIT (LENGTH_MEASURE( 1.000000000000000100E-005 ), #1050, 'distance_accuracy_value', 'NONE');
#252 = VECTOR ( 'NONE', #968, 1000.000000000000000 ) ;
#253 = ORIENTED_EDGE ( 'NONE', *, *, #575, .F. ) ;
#254 = LINE ( 'NONE', #1043, #257 ) ;
#255 = UNCERTAINTY_MEASURE_WITH_UNIT (LENGTH_MEASURE( 1.000000000000000100E-005 ), #772, 'distance_accuracy_value', 'NONE');
#256 = VECTOR ( 'NONE', #1070, 1000.000000000000000 ) ;
#257 = VECTOR ( 'NONE', #1090, 1000.000000000000000 ) ;
#258 = EDGE_CURVE ( 'NONE', #577, #7, #881, .T. ) ;
#259 = CARTESIAN_POINT ( 'NONE',  ( 1.149999999999999900, -0.8038116328983958600, 0.2815959713348666900 ) ) ;
#260 = CARTESIAN_POINT ( 'NONE',  ( 1.415004534589630000, -0.6150045345896303400, 0.05000000000000000300 ) ) ;
#261 = PRODUCT_RELATED_PRODUCT_CATEGORY ( 'part', '', ( #97 ) ) ;
#262 = CARTESIAN_POINT ( 'NONE',  ( 1.149999999999999900, -0.8038116328983958600, 0.2815959713348666900 ) ) ;
#263 = DIRECTION ( 'NONE',  ( 0.0000000000000000000, 0.0000000000000000000, 1.000000000000000000 ) ) ;
#264 = CARTESIAN_POINT ( 'NONE',  ( -1.450000000000000400, 0.6500000000000000200, 0.4500000000000153900 ) ) ;
#265 = CARTESIAN_POINT ( 'NONE',  ( 1.149999999999999900, -0.9911404091243624100, 0.0000000000000000000 ) ) ;
#266 = DIRECTION ( 'NONE',  ( 0.08682659386424415600, 0.08682659386424443300, 0.9924325091389677400 ) ) ;
#267 = EDGE_CURVE ( 'NONE', #304, #286, #1093, .T. ) ;
#268 = LINE ( 'NONE', #1225, #278 ) ;
#269 = ORIENTED_EDGE ( 'NONE', *, *, #948, .F. ) ;
#270 = PRODUCT_DEFINITION_FORMATION_WITH_SPECIFIED_SOURCE ( 'ÈÎºÎ', '', #97, .NOT_KNOWN. ) ;
#271 = LINE ( 'NONE', #1297, #1096 ) ;
#272 = ORIENTED_EDGE ( 'NONE', *, *, #858, .F. ) ;
#273 = VECTOR ( 'NONE', #1254, 1000.000000000000000 ) ;
#274 = ORIENTED_EDGE ( 'NONE', *, *, #625, .F. ) ;
#275 = DIRECTION ( 'NONE',  ( 0.0000000000000000000, 0.0000000000000000000, 1.000000000000000000 ) ) ;
#276 = VECTOR ( 'NONE', #1169, 1000.000000000000000 ) ;
#277 = CIRCLE ( 'NONE', #439, 0.3500000000000003100 ) ;
#278 = VECTOR ( 'NONE', #1091, 1000.000000000000000 ) ;
#279 = LINE ( 'NONE', #623, #547 ) ;
#280 = CARTESIAN_POINT ( 'NONE',  ( 0.7500000000000000000, -0.9917501570555777900, 0.3499999999999999200 ) ) ;
#281 = EDGE_CURVE ( 'NONE', #55, #676, #868, .T. ) ;
#282 = PRODUCT_DEFINITION ( 'Î´Öª', '', #270, #598 ) ;
#283 = DIRECTION ( 'NONE',  ( 1.000000000000000000, -0.0000000000000000000, -0.0000000000000000000 ) ) ;
#284 = ORIENTED_EDGE ( 'NONE', *, *, #192, .F. ) ;
#285 = DIRECTION ( 'NONE',  ( 0.0000000000000000000, 0.0000000000000000000, 1.000000000000000000 ) ) ;
#286 = VERTEX_POINT ( 'NONE', #690 ) ;
#287 = CARTESIAN_POINT ( 'NONE',  ( -0.7500000000000000000, -1.200000000000000000, 0.1499999999999999900 ) ) ;
#288 = EDGE_CURVE ( 'NONE', #977, #409, #856, .T. ) ;
#289 = VERTEX_POINT ( 'NONE', #779 ) ;
#290 = AXIS2_PLACEMENT_3D ( 'NONE', #1164, #222, #1020 ) ;
#291 = CIRCLE ( 'NONE', #417, 0.1505729756315023500 ) ;
#292 = COLOUR_RGB ( '',1.000000000000000000, 1.000000000000000000, 1.000000000000000000 ) ;
#293 = ORIENTED_EDGE ( 'NONE', *, *, #837, .F. ) ;
#294 = SHAPE_DEFINITION_REPRESENTATION ( #1049, #518 ) ;
#295 = DIRECTION ( 'NONE',  ( 0.9961946980917458800, 3.323312171968036700E-016, 0.08715574274765497400 ) ) ;
#296 = DIRECTION ( 'NONE',  ( -1.000000000000000000, 0.0000000000000000000, -0.0000000000000000000 ) ) ;
#297 = DIRECTION ( 'NONE',  ( 3.336006684570782600E-016, -1.000000000000000000, 0.0000000000000000000 ) ) ;
#298 = EDGE_CURVE ( 'NONE', #409, #676, #865, .T. ) ;
#299 = EDGE_CURVE ( 'NONE', #676, #565, #866, .T. ) ;
#300 = ORIENTED_EDGE ( 'NONE', *, *, #487, .F. ) ;
#301 = VERTEX_POINT ( 'NONE', #1172 ) ;
#302 = FILL_AREA_STYLE ('',( #219 ) ) ;
#303 = ADVANCED_FACE ( 'NONE', ( #838 ), #812, .F. ) ;
#304 = VERTEX_POINT ( 'NONE', #928 ) ;
#305 = EDGE_CURVE ( 'NONE', #409, #391, #859, .T. ) ;
#306 = ORIENTED_EDGE ( 'NONE', *, *, #281, .T. ) ;
#307 = LINE ( 'NONE', #1277, #1095 ) ;
#308 = SURFACE_SIDE_STYLE ('',( #710 ) ) ;
#309 = LINE ( 'NONE', #1261, #273 ) ;
#310 = PLANE ( 'NONE',  #136 ) ;
#311 = ADVANCED_FACE ( 'NONE', ( #824 ), #30, .F. ) ;
#312 = SURFACE_STYLE_USAGE ( .BOTH. , #308 ) ;
#313 =( LENGTH_UNIT ( ) NAMED_UNIT ( * ) SI_UNIT ( .MILLI., .METRE. ) );
#314 = ADVANCED_FACE ( 'NONE', ( #835 ), #22, .F. ) ;
#315 = ORIENTED_EDGE ( 'NONE', *, *, #879, .F. ) ;
#316 = DIRECTION ( 'NONE',  ( -1.000000000000000000, 0.0000000000000000000, 0.0000000000000000000 ) ) ;
#317 = LINE ( 'NONE', #1074, #256 ) ;
#318 = VERTEX_POINT ( 'NONE', #179 ) ;
#319 = VECTOR ( 'NONE', #1047, 1000.000000000000000 ) ;
#320 = VERTEX_POINT ( 'NONE', #853 ) ;
#321 = EDGE_CURVE ( 'NONE', #391, #565, #806, .T. ) ;
#322 = LINE ( 'NONE', #1082, #276 ) ;
#323 = VECTOR ( 'NONE', #715, 1000.000000000000000 ) ;
#324 =( NAMED_UNIT ( * ) PLANE_ANGLE_UNIT ( ) SI_UNIT ( $, .RADIAN. ) );
#325 = VERTEX_POINT ( 'NONE', #839 ) ;
#326 =( GEOMETRIC_REPRESENTATION_CONTEXT ( 3 ) GLOBAL_UNCERTAINTY_ASSIGNED_CONTEXT ( ( #435 ) ) GLOBAL_UNIT_ASSIGNED_CONTEXT ( ( #1045, #1040, #1032 ) ) REPRESENTATION_CONTEXT ( 'NONE', 'WORKASPACE' ) );
#327 = DIRECTION ( 'NONE',  ( -0.0000000000000000000, -0.9961946980917458800, 0.08715574274765482100 ) ) ;
#328 = LINE ( 'NONE', #1014, #252 ) ;
#329 = VECTOR ( 'NONE', #872, 1000.000000000000000 ) ;
#330 = ADVANCED_FACE ( 'NONE', ( #821 ), #791, .F. ) ;
#331 = DIRECTION ( 'NONE',  ( 0.08682659386424439200, 0.08682659386424442000, -0.9924325091389676300 ) ) ;
#332 = DIRECTION ( 'NONE',  ( 0.0000000000000000000, -0.9961946980917458800, 0.08715574274765497400 ) ) ;
#333 = AXIS2_PLACEMENT_3D ( 'NONE', #887, #927, #934 ) ;
#334 = EDGE_CURVE ( 'NONE', #565, #1008, #800, .T. ) ;
#335 =( NAMED_UNIT ( * ) SI_UNIT ( $, .STERADIAN. ) SOLID_ANGLE_UNIT ( ) );
#336 = ADVANCED_FACE ( 'NONE', ( #789 ), #787, .F. ) ;
#337 = PLANE ( 'NONE',  #121 ) ;
#338 = DIRECTION ( 'NONE',  ( -1.000000000000000000, -0.0000000000000000000, 0.0000000000000000000 ) ) ;
#339 = MECHANICAL_DESIGN_GEOMETRIC_PRESENTATION_REPRESENTATION (  '', ( #358 ), #326 ) ;
#340 = CARTESIAN_POINT ( 'NONE',  ( 0.2000000000000000100, 0.6622479918492942800, 0.2302929498360173400 ) ) ;
#341 = LINE ( 'NONE', #1001, #319 ) ;
#342 = ORIENTED_EDGE ( 'NONE', *, *, #688, .F. ) ;
#343 = VECTOR ( 'NONE', #541, 1000.000000000000000 ) ;
#344 = CARTESIAN_POINT ( 'NONE',  ( 0.7500000000000000000, -0.9911404091243624100, 0.0000000000000000000 ) ) ;
#345 = VERTEX_POINT ( 'NONE', #111 ) ;
#346 = DIRECTION ( 'NONE',  ( -1.000000000000000000, -0.0000000000000000000, 0.0000000000000000000 ) ) ;
#347 = LINE ( 'NONE', #828, #329 ) ;
#348 = ADVANCED_FACE ( 'NONE', ( #823 ), #62, .T. ) ;
#349 = VERTEX_POINT ( 'NONE', #105 ) ;
#350 = DIRECTION ( 'NONE',  ( -1.000000000000000000, 0.0000000000000000000, 0.0000000000000000000 ) ) ;
#351 = LINE ( 'NONE', #622, #343 ) ;
#352 = EDGE_CURVE ( 'NONE', #391, #13, #788, .T. ) ;
#353 = VECTOR ( 'NONE', #683, 1000.000000000000000 ) ;
#354 = PRESENTATION_LAYER_ASSIGNMENT (  '', '', ( #358 ) ) ;
#355 = LINE ( 'NONE', #698, #323 ) ;
#356 = DIRECTION ( 'NONE',  ( 0.0000000000000000000, 0.0000000000000000000, 1.000000000000000000 ) ) ;
#357 = ADVANCED_FACE ( 'NONE', ( #822 ), #85, .F. ) ;
#358 = STYLED_ITEM ( 'NONE', ( #234 ), #518 ) ;
#359 = CARTESIAN_POINT ( 'NONE',  ( -0.7500000000000000000, -0.8038116328983958600, 0.2815959713348666900 ) ) ;
#360 = EDGE_CURVE ( 'NONE', #13, #1008, #774, .T. ) ;
#361 = VERTEX_POINT ( 'NONE', #61 ) ;
#362 = ADVANCED_FACE ( 'NONE', ( #777 ), #766, .F. ) ;
#363 = CARTESIAN_POINT ( 'NONE',  ( 1.449999999999999500, 0.6500000000000000200, 0.4499999999999804700 ) ) ;
#364 = VERTEX_POINT ( 'NONE', #137 ) ;
#365 = VECTOR ( 'NONE', #569, 1000.000000000000000 ) ;
#366 = PLANE ( 'NONE',  #718 ) ;
#367 = ORIENTED_EDGE ( 'NONE', *, *, #243, .F. ) ;
#368 = CIRCLE ( 'NONE', #447, 0.3500000000000003100 ) ;
#369 = VECTOR ( 'NONE', #331, 1000.000000000000100 ) ;
#370 = VERTEX_POINT ( 'NONE', #142 ) ;
#371 = LINE ( 'NONE', #381, #353 ) ;
#372 = VECTOR ( 'NONE', #419, 1000.000000000000000 ) ;
#373 = CARTESIAN_POINT ( 'NONE',  ( 0.7500000000000000000, -0.9917501570555777900, 0.3499999999999999200 ) ) ;
#374 = LINE ( 'NONE', #483, #365 ) ;
#375 = EDGE_CURVE ( 'NONE', #1008, #1113, #770, .T. ) ;
#376 = DIRECTION ( 'NONE',  ( 0.0000000000000000000, 0.0000000000000000000, 1.000000000000000000 ) ) ;
#377 = ADVANCED_FACE ( 'NONE', ( #790 ), #750, .T. ) ;
#378 = CARTESIAN_POINT ( 'NONE',  ( -1.450000000000000400, 0.6500000000000000200, 0.4499999999999804700 ) ) ;
#379 = CARTESIAN_POINT ( 'NONE',  ( 1.149999999999999900, -1.200000000000000000, 0.0000000000000000000 ) ) ;
#380 = CARTESIAN_POINT ( 'NONE',  ( -0.7500000000000000000, -1.200000000000000000, 0.0000000000000000000 ) ) ;
#381 = CARTESIAN_POINT ( 'NONE',  ( 1.415004534589630000, 2.360232293044487700E-016, 0.05000000000000000300 ) ) ;
#382 = EDGE_CURVE ( 'NONE', #13, #70, #755, .T. ) ;
#383 =( GEOMETRIC_REPRESENTATION_CONTEXT ( 3 ) GLOBAL_UNCERTAINTY_ASSIGNED_CONTEXT ( ( #509 ) ) GLOBAL_UNIT_ASSIGNED_CONTEXT ( ( #1188, #1140, #1128 ) ) REPRESENTATION_CONTEXT ( 'NONE', 'WORKASPACE' ) );
#384 = VECTOR ( 'NONE', #102, 1000.000000000000000 ) ;
#385 = VERTEX_POINT ( 'NONE', #177 ) ;
#386 = CARTESIAN_POINT ( 'NONE',  ( 1.149999999999999900, -0.9917501570555777900, 0.3499999999999999200 ) ) ;
#387 = LINE ( 'NONE', #229, #369 ) ;
#388 = VERTEX_POINT ( 'NONE', #185 ) ;
#389 = DIRECTION ( 'NONE',  ( 0.0000000000000000000, 1.000000000000000000, 0.0000000000000000000 ) ) ;
#390 = VECTOR ( 'NONE', #1126, 1000.000000000000000 ) ;
#391 = VERTEX_POINT ( 'NONE', #189 ) ;
#392 = DIRECTION ( 'NONE',  ( 1.000000000000000000, -0.0000000000000000000, -0.0000000000000000000 ) ) ;
#393 = LINE ( 'NONE', #202, #384 ) ;
#394 = VECTOR ( 'NONE', #98, 1000.000000000000000 ) ;
#395 = LINE ( 'NONE', #378, #372 ) ;
#396 = DIRECTION ( 'NONE',  ( 0.0000000000000000000, 0.0000000000000000000, 1.000000000000000000 ) ) ;
#397 = VECTOR ( 'NONE', #870, 1000.000000000000000 ) ;
#398 = CARTESIAN_POINT ( 'NONE',  ( -1.149999999999999900, -0.6368767004711106700, 0.2999999999999805000 ) ) ;
#399 = EDGE_CURVE ( 'NONE', #70, #1113, #737, .T. ) ;
#400 = CARTESIAN_POINT ( 'NONE',  ( -0.7500000000000000000, -1.200000000000000000, 0.0000000000000000000 ) ) ;
#401 = DIRECTION ( 'NONE',  ( -1.000000000000000000, 0.0000000000000000000, -0.0000000000000000000 ) ) ;
#402 = PLANE ( 'NONE',  #87 ) ;
#403 = EDGE_CURVE ( 'NONE', #1113, #304, #743, .T. ) ;
#404 = VERTEX_POINT ( 'NONE', #191 ) ;
#405 = AXIS2_PLACEMENT_3D ( 'NONE', #1300, #346, #1294 ) ;
#406 = LINE ( 'NONE', #1273, #1088 ) ;
#407 = ORIENTED_EDGE ( 'NONE', *, *, #963, .F. ) ;
#408 = LINE ( 'NONE', #29, #415 ) ;
#409 = VERTEX_POINT ( 'NONE', #205 ) ;
#410 = VECTOR ( 'NONE', #1267, 1000.000000000000100 ) ;
#411 = LINE ( 'NONE', #31, #394 ) ;
#412 = ORIENTED_EDGE ( 'NONE', *, *, #203, .T. ) ;
#413 = VECTOR ( 'NONE', #1229, 1000.000000000000200 ) ;
#414 = LINE ( 'NONE', #1259, #410 ) ;
#415 = VECTOR ( 'NONE', #1168, 1000.000000000000000 ) ;
#416 = CARTESIAN_POINT ( 'NONE',  ( 1.149999999999999900, -1.200000000000000000, 0.1499999999999999900 ) ) ;
#417 = AXIS2_PLACEMENT_3D ( 'NONE', #183, #169, #82 ) ;
#418 = EDGE_CURVE ( 'NONE', #70, #550, #734, .T. ) ;
#419 = DIRECTION ( 'NONE',  ( -3.336006684570782600E-016, 1.000000000000000000, 0.0000000000000000000 ) ) ;
#420 = PLANE ( 'NONE',  #78 ) ;
#421 = DIRECTION ( 'NONE',  ( 0.0000000000000000000, 0.3420201433256644900, 0.9396926207859098700 ) ) ;
#422 = VERTEX_POINT ( 'NONE', #213 ) ;
#423 = DIRECTION ( 'NONE',  ( -0.0000000000000000000, -0.0000000000000000000, 1.000000000000000000 ) ) ;
#424 = EDGE_CURVE ( 'NONE', #1044, #1021, #768, .T. ) ;
#425 = LINE ( 'NONE', #1234, #413 ) ;
#426 = ORIENTED_EDGE ( 'NONE', *, *, #258, .T. ) ;
#427 = AXIS2_PLACEMENT_3D ( 'NONE', #467, #338, #263 ) ;
#428 = VECTOR ( 'NONE', #1197, 1000.000000000000000 ) ;
#429 = VERTEX_POINT ( 'NONE', #260 ) ;
#430 = LINE ( 'NONE', #1104, #428 ) ;
#431 = CIRCLE ( 'NONE', #464, 0.1505729756315023500 ) ;
#432 = VECTOR ( 'NONE', #1181, 1000.000000000000200 ) ;
#433 = PLANE ( 'NONE',  #1100 ) ;
#434 = VECTOR ( 'NONE', #1200, 1000.000000000000000 ) ;
#435 = UNCERTAINTY_MEASURE_WITH_UNIT (LENGTH_MEASURE( 1.000000000000000100E-005 ), #1045, 'distance_accuracy_value', 'NONE');
#436 = DIRECTION ( 'NONE',  ( 0.0000000000000000000, 0.0000000000000000000, 1.000000000000000000 ) ) ;
#437 = EDGE_CURVE ( 'NONE', #1021, #1078, #729, .T. ) ;
#438 = PLANE ( 'NONE',  #112 ) ;
#439 = AXIS2_PLACEMENT_3D ( 'NONE', #1290, #1227, #1033 ) ;
#440 = ADVANCED_FACE ( 'NONE', ( #723 ), #241, .F. ) ;
#441 = MANIFOLD_SOLID_BREP ( 'Mold', #1087 ) ;
#442 = ORIENTED_EDGE ( 'NONE', *, *, #889, .T. ) ;
#443 = EDGE_CURVE ( 'NONE', #1044, #26, #745, .T. ) ;
#444 = VECTOR ( 'NONE', #1145, 1000.000000000000000 ) ;
#445 = ORIENTED_EDGE ( 'NONE', *, *, #462, .F. ) ;
#446 = DIRECTION ( 'NONE',  ( 1.000000000000000000, 0.0000000000000000000, 0.0000000000000000000 ) ) ;
#447 = AXIS2_PLACEMENT_3D ( 'NONE', #720, #722, #747 ) ;
#448 = LINE ( 'NONE', #1163, #432 ) ;
#449 = DIRECTION ( 'NONE',  ( 0.0000000000000000000, 0.0000000000000000000, -1.000000000000000000 ) ) ;
#450 = VERTEX_POINT ( 'NONE', #359 ) ;
#451 = EDGE_CURVE ( 'NONE', #26, #1078, #687, .T. ) ;
#452 = VECTOR ( 'NONE', #486, 1000.000000000000000 ) ;
#453 = LINE ( 'NONE', #1154, #535 ) ;
#454 = ADVANCED_FACE ( 'NONE', ( #713 ), #366, .F. ) ;
#455 = ORIENTED_EDGE ( 'NONE', *, *, #437, .T. ) ;
#456 = LINE ( 'NONE', #1132, #444 ) ;
#457 = VECTOR ( 'NONE', #1081, 1000.000000000000000 ) ;
#458 = CARTESIAN_POINT ( 'NONE',  ( 0.7500000000000000000, -0.7783690145618101800, 0.3514989907064389700 ) ) ;
#459 = LINE ( 'NONE', #1066, #468 ) ;
#460 = EDGE_CURVE ( 'NONE', #1078, #546, #1035, .T. ) ;
#461 = ADVANCED_FACE ( 'NONE', ( #566 ), #475, .F. ) ;
#462 = EDGE_CURVE ( 'NONE', #26, #608, #682, .T. ) ;
#463 = CARTESIAN_POINT ( 'NONE',  ( 1.149999999999999900, -0.6368767004711106700, 0.2999999999999805000 ) ) ;
#464 = AXIS2_PLACEMENT_3D ( 'NONE', #1239, #1249, #1252 ) ;
#465 = ORIENTED_EDGE ( 'NONE', *, *, #908, .T. ) ;
#466 = UNCERTAINTY_MEASURE_WITH_UNIT (LENGTH_MEASURE( 1.000000000000000100E-005 ), #654, 'distance_accuracy_value', 'NONE');
#467 = CARTESIAN_POINT ( 'NONE',  ( 0.2000000000000000100, 0.9917501570555777900, 0.3499999999999999200 ) ) ;
#468 = VECTOR ( 'NONE', #1098, 1000.000000000000000 ) ;
#469 = ORIENTED_EDGE ( 'NONE', *, *, #460, .T. ) ;
#470 = ADVANCED_FACE ( 'NONE', ( #681 ), #502, .F. ) ;
#471 = VECTOR ( 'NONE', #1241, 1000.000000000000000 ) ;
#472 = ORIENTED_EDGE ( 'NONE', *, *, #231, .T. ) ;
#473 = EDGE_CURVE ( 'NONE', #608, #546, #679, .T. ) ;
#474 = LINE ( 'NONE', #1007, #471 ) ;
#475 = PLANE ( 'NONE',  #694 ) ;
#476 = ORIENTED_EDGE ( 'NONE', *, *, #481, .T. ) ;
#477 =( GEOMETRIC_REPRESENTATION_CONTEXT ( 3 ) GLOBAL_UNCERTAINTY_ASSIGNED_CONTEXT ( ( #251 ) ) GLOBAL_UNIT_ASSIGNED_CONTEXT ( ( #1050, #1065, #18 ) ) REPRESENTATION_CONTEXT ( 'NONE', 'WORKASPACE' ) );
#478 = LINE ( 'NONE', #1120, #452 ) ;
#479 = DIRECTION ( 'NONE',  ( 0.0000000000000000000, 0.0000000000000000000, 1.000000000000000000 ) ) ;
#480 = LINE ( 'NONE', #1015, #457 ) ;
#481 = EDGE_CURVE ( 'NONE', #546, #1005, #1041, .T. ) ;
#482 = DIRECTION ( 'NONE',  ( -1.000000000000000000, 0.0000000000000000000, 0.0000000000000000000 ) ) ;
#483 = CARTESIAN_POINT ( 'NONE',  ( 1.449999999999999700, -0.6062556682370379100, 0.9499999999999999600 ) ) ;
#484 = DIRECTION ( 'NONE',  ( 0.0000000000000000000, 0.0000000000000000000, 1.000000000000000000 ) ) ;
#485 = CARTESIAN_POINT ( 'NONE',  ( 0.7500000000000000000, -0.6500000000000001300, 0.4499999999999804700 ) ) ;
#486 = DIRECTION ( 'NONE',  ( -1.000000000000000000, 0.0000000000000000000, -0.0000000000000000000 ) ) ;
#487 = EDGE_CURVE ( 'NONE', #608, #1109, #668, .T. ) ;
#488 = DIRECTION ( 'NONE',  ( 0.0000000000000000000, 0.9396926207859098700, -0.3420201433256645500 ) ) ;
#489 = ORIENTED_EDGE ( 'NONE', *, *, #890, .T. ) ;
#490 = UNCERTAINTY_MEASURE_WITH_UNIT (LENGTH_MEASURE( 1.000000000000000100E-005 ), #313, 'distance_accuracy_value', 'NONE');
#491 = ORIENTED_EDGE ( 'NONE', *, *, #503, .T. ) ;
#492 = ORIENTED_EDGE ( 'NONE', *, *, #209, .T. ) ;
#493 = DIRECTION ( 'NONE',  ( -1.000000000000000000, 0.0000000000000000000, -0.0000000000000000000 ) ) ;
#494 = DIRECTION ( 'NONE',  ( -0.0000000000000000000, 0.0000000000000000000, 1.000000000000000000 ) ) ;
#495 = MECHANICAL_DESIGN_GEOMETRIC_PRESENTATION_REPRESENTATION (  '', ( #515 ), #477 ) ;
#496 = CARTESIAN_POINT ( 'NONE',  ( -0.7500000000000000000, -0.9917501570555787800, 0.1499999999999999400 ) ) ;
#497 = MANIFOLD_SOLID_BREP ( 'Lead3', #244 ) ;
#498 = DIRECTION ( 'NONE',  ( 1.000000000000000000, 0.0000000000000000000, 0.0000000000000000000 ) ) ;
#499 = CARTESIAN_POINT ( 'NONE',  ( 1.149999999999999900, -1.200000000000000000, 0.1499999999999999900 ) ) ;
#500 = EDGE_CURVE ( 'NONE', #1109, #1005, #642, .T. ) ;
#501 = PRESENTATION_LAYER_ASSIGNMENT (  '', '', ( #515 ) ) ;
#502 = PLANE ( 'NONE',  #670 ) ;
#503 = EDGE_CURVE ( 'NONE', #1005, #613, #649, .T. ) ;
#504 = DIRECTION ( 'NONE',  ( -1.000000000000000000, 0.0000000000000000000, -0.0000000000000000000 ) ) ;
#505 = CARTESIAN_POINT ( 'NONE',  ( 0.2000000000000000100, 0.6368767004711106700, 0.2999999999999805000 ) ) ;
#506 = ORIENTED_EDGE ( 'NONE', *, *, #554, .T. ) ;
#507 = CARTESIAN_POINT ( 'NONE',  ( -0.7500000000000000000, -1.200000000000000000, 0.1499999999999999900 ) ) ;
#508 = VERTEX_POINT ( 'NONE', #674 ) ;
#509 = UNCERTAINTY_MEASURE_WITH_UNIT (LENGTH_MEASURE( 1.000000000000000100E-005 ), #1188, 'distance_accuracy_value', 'NONE');
#510 = CARTESIAN_POINT ( 'NONE',  ( 0.2000000000000000100, 0.9917501570555787800, 0.1499999999999999400 ) ) ;
#511 = VERTEX_POINT ( 'NONE', #701 ) ;
#512 = ORIENTED_EDGE ( 'NONE', *, *, #661, .T. ) ;
#513 = CARTESIAN_POINT ( 'NONE',  ( 1.149999999999999900, -0.7783690145618101800, 0.3514989907064389700 ) ) ;
#514 = DIRECTION ( 'NONE',  ( 0.0000000000000000000, 0.3420201433256644900, 0.9396926207859098700 ) ) ;
#515 = STYLED_ITEM ( 'NONE', ( #533 ), #603 ) ;
#516 = FACE_OUTER_BOUND ( 'NONE', #1069, .T. ) ;
#517 = DIRECTION ( 'NONE',  ( -1.000000000000000000, -0.0000000000000000000, -0.0000000000000000000 ) ) ;
#518 = ADVANCED_BREP_SHAPE_REPRESENTATION ( 'SOT23', ( #441, #497, #603, #539, #290 ), #383 ) ;
#519 = DIRECTION ( 'NONE',  ( 0.0000000000000000000, -2.603128427748353100E-016, -1.000000000000000000 ) ) ;
#520 = DIRECTION ( 'NONE',  ( 0.0000000000000000000, 2.603128427748353100E-016, -1.000000000000000000 ) ) ;
#521 = CARTESIAN_POINT ( 'NONE',  ( -0.2000000000000000100, 0.7783690145618099600, 0.3514989907064389200 ) ) ;
#522 = EDGE_CURVE ( 'NONE', #1109, #727, #651, .T. ) ;
#523 = AXIS2_PLACEMENT_3D ( 'NONE', #959, #961, #964 ) ;
#524 = FACE_OUTER_BOUND ( 'NONE', #1215, .T. ) ;
#525 = ORIENTED_EDGE ( 'NONE', *, *, #564, .T. ) ;
#526 = DIRECTION ( 'NONE',  ( 0.0000000000000000000, 1.000000000000000000, 2.603128427748353100E-016 ) ) ;
#527 = LINE ( 'NONE', #898, #1160 ) ;
#528 = VERTEX_POINT ( 'NONE', #736 ) ;
#529 = DIRECTION ( 'NONE',  ( 0.0000000000000000000, -0.3420201433256645500, -0.9396926207859098700 ) ) ;
#530 = SURFACE_STYLE_FILL_AREA ( #1026 ) ;
#531 = ORIENTED_EDGE ( 'NONE', *, *, #946, .T. ) ;
#532 = VECTOR ( 'NONE', #981, 1000.000000000000000 ) ;
#533 = PRESENTATION_STYLE_ASSIGNMENT (( #1037 ) ) ;
#534 = CARTESIAN_POINT ( 'NONE',  ( 1.149999999999999900, -0.7783690145618099600, 0.3514989907064389200 ) ) ;
#535 = VECTOR ( 'NONE', #1139, 1000.000000000000000 ) ;
#536 = CARTESIAN_POINT ( 'NONE',  ( -1.415004534589630700, 0.6150045345896303400, 0.05000000000000000300 ) ) ;
#537 = AXIS2_PLACEMENT_3D ( 'NONE', #905, #911, #926 ) ;
#538 = EDGE_CURVE ( 'NONE', #727, #613, #631, .T. ) ;
#539 = MANIFOLD_SOLID_BREP ( 'Lead2', #1133 ) ;
#540 = CARTESIAN_POINT ( 'NONE',  ( 1.406255668237037700, 0.6062556682370379100, 0.9499999999999999600 ) ) ;
#541 = DIRECTION ( 'NONE',  ( -1.000000000000000000, -0.0000000000000000000, -0.0000000000000000000 ) ) ;
#542 = DIRECTION ( 'NONE',  ( -1.000000000000000000, 0.0000000000000000000, -0.0000000000000000000 ) ) ;
#543 = VERTEX_POINT ( 'NONE', #704 ) ;
#544 =( GEOMETRIC_REPRESENTATION_CONTEXT ( 3 ) GLOBAL_UNCERTAINTY_ASSIGNED_CONTEXT ( ( #255 ) ) GLOBAL_UNIT_ASSIGNED_CONTEXT ( ( #772, #778, #780 ) ) REPRESENTATION_CONTEXT ( 'NONE', 'WORKASPACE' ) );
#545 = VECTOR ( 'NONE', #1171, 1000.000000000000000 ) ;
#546 = VERTEX_POINT ( 'NONE', #794 ) ;
#547 = VECTOR ( 'NONE', #517, 1000.000000000000000 ) ;
#548 = ORIENTED_EDGE ( 'NONE', *, *, #584, .T. ) ;
#549 = VECTOR ( 'NONE', #266, 1000.000000000000000 ) ;
#550 = VERTEX_POINT ( 'NONE', #738 ) ;
#551 = LINE ( 'NONE', #849, #532 ) ;
#552 = VECTOR ( 'NONE', #967, 1000.000000000000000 ) ;
#553 = LINE ( 'NONE', #945, #552 ) ;
#554 = EDGE_CURVE ( 'NONE', #613, #999, #633, .T. ) ;
#555 = DIRECTION ( 'NONE',  ( 0.0000000000000000000, -2.603128427748353100E-016, -1.000000000000000000 ) ) ;
#556 = MECHANICAL_DESIGN_GEOMETRIC_PRESENTATION_REPRESENTATION (  '', ( #587 ), #544 ) ;
#557 = EDGE_CURVE ( 'NONE', #727, #1023, #581, .T. ) ;
#558 = CARTESIAN_POINT ( 'NONE',  ( -1.149999999999999900, -1.200000000000000000, 0.0000000000000000000 ) ) ;
#559 = DIRECTION ( 'NONE',  ( 0.0000000000000000000, -1.000000000000000000, 2.603128427748353100E-016 ) ) ;
#560 = EDGE_CURVE ( 'NONE', #1023, #999, #579, .T. ) ;
#561 = CARTESIAN_POINT ( 'NONE',  ( 1.149999999999999900, -0.6500000000000001300, 0.4499999999999804700 ) ) ;
#562 = CIRCLE ( 'NONE', #523, 0.3500000000000003100 ) ;
#563 = ORIENTED_EDGE ( 'NONE', *, *, #165, .T. ) ;
#564 = EDGE_CURVE ( 'NONE', #999, #35, #572, .T. ) ;
#565 = VERTEX_POINT ( 'NONE', #947 ) ;
#566 = FACE_OUTER_BOUND ( 'NONE', #1279, .T. ) ;
#567 = ORIENTED_EDGE ( 'NONE', *, *, #614, .T. ) ;
#568 = VECTOR ( 'NONE', #867, 1000.000000000000000 ) ;
#569 = DIRECTION ( 'NONE',  ( 1.000000000000000000, 0.0000000000000000000, 0.0000000000000000000 ) ) ;
#570 = COLOUR_RGB ( '',1.000000000000000000, 1.000000000000000000, 1.000000000000000000 ) ;
#571 = CARTESIAN_POINT ( 'NONE',  ( -1.450000000000000000, -0.6500000000000000200, 0.4500000000000153900 ) ) ;
#572 = CIRCLE ( 'NONE', #537, 0.3500000000000003100 ) ;
#573 = VECTOR ( 'NONE', #843, 1000.000000000000100 ) ;
#574 = DIRECTION ( 'NONE',  ( -1.000000000000000000, -0.0000000000000000000, -0.0000000000000000000 ) ) ;
#575 = EDGE_CURVE ( 'NONE', #1023, #970, #562, .T. ) ;
#576 = PRESENTATION_LAYER_ASSIGNMENT (  '', '', ( #587 ) ) ;
#577 = VERTEX_POINT ( 'NONE', #902 ) ;
#578 = EDGE_CURVE ( 'NONE', #970, #35, #553, .T. ) ;
#579 = LINE ( 'NONE', #848, #568 ) ;
#580 = ORIENTED_EDGE ( 'NONE', *, *, #641, .T. ) ;
#581 = LINE ( 'NONE', #796, #612 ) ;
#582 = ORIENTED_EDGE ( 'NONE', *, *, #473, .F. ) ;
#583 = ORIENTED_EDGE ( 'NONE', *, *, #460, .F. ) ;
#584 = EDGE_CURVE ( 'NONE', #35, #665, #527, .T. ) ;
#585 = CARTESIAN_POINT ( 'NONE',  ( 0.7500000000000000000, -0.6368767004711106700, 0.2999999999999805000 ) ) ;
#586 = CARTESIAN_POINT ( 'NONE',  ( -1.149999999999999900, -0.9917501570555777900, 0.3499999999999999200 ) ) ;
#587 = STYLED_ITEM ( 'NONE', ( #611 ), #539 ) ;
#588 = PLANE ( 'NONE',  #60 ) ;
#589 = DIRECTION ( 'NONE',  ( -1.000000000000000000, -0.0000000000000000000, -0.0000000000000000000 ) ) ;
#590 = DIRECTION ( 'NONE',  ( 0.0000000000000000000, 0.9961946980917458800, 0.08715574274765497400 ) ) ;
#591 = ORIENTED_EDGE ( 'NONE', *, *, #451, .F. ) ;
#592 = ORIENTED_EDGE ( 'NONE', *, *, #473, .T. ) ;
#593 = EDGE_CURVE ( 'NONE', #970, #34, #551, .T. ) ;
#594 = DIRECTION ( 'NONE',  ( 0.0000000000000000000, 0.0000000000000000000, -1.000000000000000000 ) ) ;
#595 = ORIENTED_EDGE ( 'NONE', *, *, #462, .T. ) ;
#596 =( GEOMETRIC_REPRESENTATION_CONTEXT ( 3 ) GLOBAL_UNCERTAINTY_ASSIGNED_CONTEXT ( ( #466 ) ) GLOBAL_UNIT_ASSIGNED_CONTEXT ( ( #654, #657, #659 ) ) REPRESENTATION_CONTEXT ( 'NONE', 'WORKASPACE' ) );
#597 = DIRECTION ( 'NONE',  ( 0.0000000000000000000, 0.0000000000000000000, 1.000000000000000000 ) ) ;
#598 = PRODUCT_DEFINITION_CONTEXT ( 'detailed design', #983, 'design' ) ;
#599 = CARTESIAN_POINT ( 'NONE',  ( 0.2000000000000000100, 0.9917501570555777900, 0.3499999999999999200 ) ) ;
#600 = DIRECTION ( 'NONE',  ( 1.000000000000000000, -0.0000000000000000000, 0.0000000000000000000 ) ) ;
#601 = MECHANICAL_DESIGN_GEOMETRIC_PRESENTATION_REPRESENTATION (  '', ( #646 ), #596 ) ;
#602 = CARTESIAN_POINT ( 'NONE',  ( 1.149999999999999900, -0.6368767004711106700, 0.2999999999999805000 ) ) ;
#603 = MANIFOLD_SOLID_BREP ( 'Lead1', #1012 ) ;
#604 = EDGE_CURVE ( 'NONE', #34, #665, #474, .T. ) ;
#605 = CARTESIAN_POINT ( 'NONE',  ( 1.149999999999999900, -0.9917501570555787800, 0.1499999999999999400 ) ) ;
#606 = ORIENTED_EDGE ( 'NONE', *, *, #481, .F. ) ;
#607 = FILL_AREA_STYLE_COLOUR ( '', #666 ) ;
#608 = VERTEX_POINT ( 'NONE', #986 ) ;
#609 = ORIENTED_EDGE ( 'NONE', *, *, #487, .T. ) ;
#610 = PLANE ( 'NONE',  #42 ) ;
#611 = PRESENTATION_STYLE_ASSIGNMENT (( #950 ) ) ;
#612 = VECTOR ( 'NONE', #854, 1000.000000000000100 ) ;
#613 = VERTEX_POINT ( 'NONE', #1214 ) ;
#614 = EDGE_CURVE ( 'NONE', #665, #933, #480, .T. ) ;
#615 = CARTESIAN_POINT ( 'NONE',  ( 1.149999999999999900, -0.6368767004711106700, 0.2999999999999805000 ) ) ;
#616 = VECTOR ( 'NONE', #740, 1000.000000000000000 ) ;
#617 = SURFACE_STYLE_FILL_AREA ( #998 ) ;
#618 = AXIS2_PLACEMENT_3D ( 'NONE', #1302, #1304, #4 ) ;
#619 = VECTOR ( 'NONE', #725, 1000.000000000000000 ) ;
#620 = PLANE ( 'NONE',  #49 ) ;
#621 = DIRECTION ( 'NONE',  ( -1.000000000000000000, -0.0000000000000000000, -0.0000000000000000000 ) ) ;
#622 = CARTESIAN_POINT ( 'NONE',  ( 0.2000000000000000100, 0.6368767004711106700, 0.2999999999999805000 ) ) ;
#623 = CARTESIAN_POINT ( 'NONE',  ( 0.2000000000000000100, 0.7783690145618099600, 0.3514989907064389200 ) ) ;
#624 = CARTESIAN_POINT ( 'NONE',  ( 0.2000000000000000100, 0.6368767004711106700, 0.2999999999999805000 ) ) ;
#625 = EDGE_CURVE ( 'NONE', #34, #68, #459, .T. ) ;
#626 = PRESENTATION_LAYER_ASSIGNMENT (  '', '', ( #646 ) ) ;
#627 = DIRECTION ( 'NONE',  ( 0.0000000000000000000, 0.0000000000000000000, -1.000000000000000000 ) ) ;
#628 = FILL_AREA_STYLE ('',( #607 ) ) ;
#629 = DIRECTION ( 'NONE',  ( 0.0000000000000000000, -1.000000000000000000, 2.603128427748353100E-016 ) ) ;
#630 = ORIENTED_EDGE ( 'NONE', *, *, #500, .T. ) ;
#631 = LINE ( 'NONE', #719, #616 ) ;
#632 = ORIENTED_EDGE ( 'NONE', *, *, #503, .F. ) ;
#633 = LINE ( 'NONE', #831, #573 ) ;
#634 = ORIENTED_EDGE ( 'NONE', *, *, #500, .F. ) ;
#635 = SURFACE_SIDE_STYLE ('',( #667 ) ) ;
#636 = EDGE_CURVE ( 'NONE', #68, #933, #478, .T. ) ;
#637 = VECTOR ( 'NONE', #689, 1000.000000000000000 ) ;
#638 = COLOUR_RGB ( '',1.000000000000000000, 1.000000000000000000, 1.000000000000000000 ) ;
#639 = CARTESIAN_POINT ( 'NONE',  ( 1.149999999999999900, -0.9911404091243630800, 0.3499999999999999800 ) ) ;
#640 = VECTOR ( 'NONE', #671, 1000.000000000000000 ) ;
#641 = EDGE_CURVE ( 'NONE', #933, #1021, #456, .T. ) ;
#642 = LINE ( 'NONE', #561, #640 ) ;
#643 = SURFACE_STYLE_USAGE ( .BOTH. , #635 ) ;
#644 = CARTESIAN_POINT ( 'NONE',  ( -0.7500000000000000000, -0.7783690145618099600, 0.3514989907064389200 ) ) ;
#645 = DIRECTION ( 'NONE',  ( 1.000000000000000000, -0.0000000000000000000, -0.0000000000000000000 ) ) ;
#646 = STYLED_ITEM ( 'NONE', ( #677 ), #497 ) ;
#647 = ORIENTED_EDGE ( 'NONE', *, *, #522, .T. ) ;
#648 = CARTESIAN_POINT ( 'NONE',  ( 0.2000000000000000100, 1.200000000000000000, 0.0000000000000000000 ) ) ;
#649 = LINE ( 'NONE', #147, #637 ) ;
#650 = ORIENTED_EDGE ( 'NONE', *, *, #538, .T. ) ;
#651 = LINE ( 'NONE', #602, #619 ) ;
#652 = ORIENTED_EDGE ( 'NONE', *, *, #554, .F. ) ;
#653 = ORIENTED_EDGE ( 'NONE', *, *, #538, .F. ) ;
#654 =( LENGTH_UNIT ( ) NAMED_UNIT ( * ) SI_UNIT ( .MILLI., .METRE. ) );
#655 = EDGE_CURVE ( 'NONE', #68, #1044, #453, .T. ) ;
#656 = CARTESIAN_POINT ( 'NONE',  ( -1.149999999999999900, -0.9917501570555777900, 0.3499999999999999200 ) ) ;
#657 =( NAMED_UNIT ( * ) PLANE_ANGLE_UNIT ( ) SI_UNIT ( $, .RADIAN. ) );
#658 = PLANE ( 'NONE',  #32 ) ;
#659 =( NAMED_UNIT ( * ) SI_UNIT ( $, .STERADIAN. ) SOLID_ANGLE_UNIT ( ) );
#660 = DIRECTION ( 'NONE',  ( 0.0000000000000000000, 0.0000000000000000000, 1.000000000000000000 ) ) ;
#661 = EDGE_CURVE ( 'NONE', #404, #345, #448, .T. ) ;
#662 = AXIS2_PLACEMENT_3D ( 'NONE', #615, #621, #627 ) ;
#663 = ORIENTED_EDGE ( 'NONE', *, *, #557, .T. ) ;
#664 = ORIENTED_EDGE ( 'NONE', *, *, #560, .T. ) ;
#665 = VERTEX_POINT ( 'NONE', #1187 ) ;
#666 = COLOUR_RGB ( '',1.000000000000000000, 1.000000000000000000, 1.000000000000000000 ) ;
#667 = SURFACE_STYLE_FILL_AREA ( #628 ) ;
#668 = CIRCLE ( 'NONE', #662, 0.1505729756315023500 ) ;
#669 = DIRECTION ( 'NONE',  ( -0.0000000000000000000, 0.0000000000000000000, 1.000000000000000000 ) ) ;
#670 = AXIS2_PLACEMENT_3D ( 'NONE', #510, #520, #526 ) ;
#671 = DIRECTION ( 'NONE',  ( -1.000000000000000000, 0.0000000000000000000, -0.0000000000000000000 ) ) ;
#672 = DIRECTION ( 'NONE',  ( 1.000000000000000000, 0.0000000000000000000, 0.0000000000000000000 ) ) ;
#673 = EDGE_CURVE ( 'NONE', #370, #528, #430, .T. ) ;
#674 = CARTESIAN_POINT ( 'NONE',  ( -0.2000000000000000100, 1.200000000000000000, 0.1499999999999999900 ) ) ;
#675 = AXIS2_PLACEMENT_3D ( 'NONE', #585, #589, #594 ) ;
#676 = VERTEX_POINT ( 'NONE', #1184 ) ;
#677 = PRESENTATION_STYLE_ASSIGNMENT (( #643 ) ) ;
#678 = ORIENTED_EDGE ( 'NONE', *, *, #564, .F. ) ;
#679 = LINE ( 'NONE', #534, #712 ) ;
#680 = ORIENTED_EDGE ( 'NONE', *, *, #560, .F. ) ;
#681 = FACE_OUTER_BOUND ( 'NONE', #1287, .T. ) ;
#682 = LINE ( 'NONE', #513, #1038 ) ;
#683 = DIRECTION ( 'NONE',  ( 1.668003342285391300E-016, -1.000000000000000000, 0.0000000000000000000 ) ) ;
#684 = ORIENTED_EDGE ( 'NONE', *, *, #575, .T. ) ;
#685 = VECTOR ( 'NONE', #421, 1000.000000000000200 ) ;
#686 = VECTOR ( 'NONE', #401, 1000.000000000000000 ) ;
#687 = LINE ( 'NONE', #262, #686 ) ;
#688 = EDGE_CURVE ( 'NONE', #320, #508, #1119, .T. ) ;
#689 = DIRECTION ( 'NONE',  ( -0.0000000000000000000, 0.08715574274766350900, -0.9961946980917451000 ) ) ;
#690 = CARTESIAN_POINT ( 'NONE',  ( -1.149999999999999900, -0.8038116328983958600, 0.2815959713348666900 ) ) ;
#691 = DIRECTION ( 'NONE',  ( 0.0000000000000000000, -0.3420201433256632700, -0.9396926207859103200 ) ) ;
#692 = EDGE_CURVE ( 'NONE', #318, #325, #431, .T. ) ;
#693 = ORIENTED_EDGE ( 'NONE', *, *, #578, .T. ) ;
#694 = AXIS2_PLACEMENT_3D ( 'NONE', #648, #494, #498 ) ;
#695 = DIRECTION ( 'NONE',  ( 0.0000000000000000000, 0.9396926207859098700, -0.3420201433256645500 ) ) ;
#696 = ORIENTED_EDGE ( 'NONE', *, *, #203, .F. ) ;
#697 = ORIENTED_EDGE ( 'NONE', *, *, #305, .F. ) ;
#698 = CARTESIAN_POINT ( 'NONE',  ( 0.2000000000000000100, 0.8038116328983958600, 0.2815959713348666900 ) ) ;
#699 = CARTESIAN_POINT ( 'NONE',  ( -1.450000000000000400, 0.6500000000000000200, 0.4500000000000153900 ) ) ;
#700 = DIRECTION ( 'NONE',  ( 0.0000000000000000000, -0.9961946980917451000, -0.08715574274766352300 ) ) ;
#701 = CARTESIAN_POINT ( 'NONE',  ( -0.2000000000000000100, 0.6622479918492942800, 0.2302929498360173400 ) ) ;
#702 = EDGE_CURVE ( 'NONE', #207, #79, #425, .T. ) ;
#703 = DIRECTION ( 'NONE',  ( -0.9961946980917458800, -1.661656085984018400E-016, 0.08715574274765472400 ) ) ;
#704 = CARTESIAN_POINT ( 'NONE',  ( 0.2000000000000000100, 0.6500000000000001300, 0.4499999999999804700 ) ) ;
#705 = ORIENTED_EDGE ( 'NONE', *, *, #673, .F. ) ;
#706 = DIRECTION ( 'NONE',  ( -1.668003342285391300E-016, 1.000000000000000000, -0.0000000000000000000 ) ) ;
#707 = ORIENTED_EDGE ( 'NONE', *, *, #578, .F. ) ;
#708 = ORIENTED_EDGE ( 'NONE', *, *, #243, .T. ) ;
#709 = PRESENTATION_STYLE_ASSIGNMENT (( #312 ) ) ;
#710 = SURFACE_STYLE_FILL_AREA ( #302 ) ;
#711 = ORIENTED_EDGE ( 'NONE', *, *, #593, .T. ) ;
#712 = VECTOR ( 'NONE', #504, 1000.000000000000000 ) ;
#713 = FACE_OUTER_BOUND ( 'NONE', #910, .T. ) ;
#714 = DIRECTION ( 'NONE',  ( 0.0000000000000000000, -0.08715574274766352300, 0.9961946980917451000 ) ) ;
#715 = DIRECTION ( 'NONE',  ( -1.000000000000000000, -0.0000000000000000000, -0.0000000000000000000 ) ) ;
#716 = CARTESIAN_POINT ( 'NONE',  ( 0.2000000000000000100, 1.200000000000000000, 0.1499999999999999900 ) ) ;
#717 = EDGE_CURVE ( 'NONE', #174, #92, #414, .T. ) ;
#718 = AXIS2_PLACEMENT_3D ( 'NONE', #380, #436, #446 ) ;
#719 = CARTESIAN_POINT ( 'NONE',  ( 1.149999999999999900, -0.6368767004711106700, 0.2999999999999805000 ) ) ;
#720 = CARTESIAN_POINT ( 'NONE',  ( -0.2000000000000000100, 0.9911404091243630800, 0.3499999999999999800 ) ) ;
#721 = DIRECTION ( 'NONE',  ( -1.000000000000000000, 0.0000000000000000000, 0.0000000000000000000 ) ) ;
#722 = DIRECTION ( 'NONE',  ( 1.000000000000000000, 0.0000000000000000000, -0.0000000000000000000 ) ) ;
#723 = FACE_OUTER_BOUND ( 'NONE', #1130, .T. ) ;
#724 = ORIENTED_EDGE ( 'NONE', *, *, #224, .T. ) ;
#725 = DIRECTION ( 'NONE',  ( -0.0000000000000000000, 0.08715574274766350900, -0.9961946980917451000 ) ) ;
#726 = VECTOR ( 'NONE', #248, 1000.000000000000000 ) ;
#727 = VERTEX_POINT ( 'NONE', #1283 ) ;
#728 = CARTESIAN_POINT ( 'NONE',  ( -0.7500000000000000000, -0.7783690145618101800, 0.3514989907064389700 ) ) ;
#729 = CIRCLE ( 'NONE', #906, 0.1999999999999999800 ) ;
#730 = ORIENTED_EDGE ( 'NONE', *, *, #702, .T. ) ;
#731 = EDGE_CURVE ( 'NONE', #83, #43, #406, .T. ) ;
#732 = FILL_AREA_STYLE_COLOUR ( '', #638 ) ;
#733 = VECTOR ( 'NONE', #226, 1000.000000000000000 ) ;
#734 = LINE ( 'NONE', #215, #733 ) ;
#735 = VECTOR ( 'NONE', #1115, 1000.000000000000000 ) ;
#736 = CARTESIAN_POINT ( 'NONE',  ( -0.2000000000000000100, 0.9917501570555787800, 0.1499999999999999400 ) ) ;
#737 = LINE ( 'NONE', #167, #735 ) ;
#738 = CARTESIAN_POINT ( 'NONE',  ( -0.7500000000000000000, -0.9917501570555787800, 0.1499999999999999400 ) ) ;
#739 = PLANE ( 'NONE',  #100 ) ;
#740 = DIRECTION ( 'NONE',  ( -1.000000000000000000, 0.0000000000000000000, -0.0000000000000000000 ) ) ;
#741 = CARTESIAN_POINT ( 'NONE',  ( 1.449999999999999500, 0.6500000000000000200, 0.4500000000000153900 ) ) ;
#742 = ORIENTED_EDGE ( 'NONE', *, *, #943, .T. ) ;
#743 = LINE ( 'NONE', #199, #754 ) ;
#744 = ORIENTED_EDGE ( 'NONE', *, *, #943, .F. ) ;
#745 = CIRCLE ( 'NONE', #753, 0.1999999999999999800 ) ;
#746 = ORIENTED_EDGE ( 'NONE', *, *, #946, .F. ) ;
#747 = DIRECTION ( 'NONE',  ( 0.0000000000000000000, 0.0000000000000000000, 1.000000000000000000 ) ) ;
#748 = EDGE_CURVE ( 'NONE', #429, #361, #408, .T. ) ;
#749 = COLOUR_RGB ( '',0.0000000000000000000, 0.0000000000000000000, 1.000000000000000000 ) ;
#750 = CYLINDRICAL_SURFACE ( 'NONE', #841, 0.3500000000000003100 ) ;
#751 = PLANE ( 'NONE',  #27 ) ;
#752 = ORIENTED_EDGE ( 'NONE', *, *, #858, .T. ) ;
#753 = AXIS2_PLACEMENT_3D ( 'NONE', #386, #392, #396 ) ;
#754 = VECTOR ( 'NONE', #210, 1000.000000000000000 ) ;
#755 = LINE ( 'NONE', #178, #771 ) ;
#756 = DIRECTION ( 'NONE',  ( 0.0000000000000000000, 0.0000000000000000000, 1.000000000000000000 ) ) ;
#757 = DIRECTION ( 'NONE',  ( 0.0000000000000000000, -0.3420201433256645500, -0.9396926207859098700 ) ) ;
#758 = EDGE_CURVE ( 'NONE', #92, #385, #1086, .T. ) ;
#759 = CARTESIAN_POINT ( 'NONE',  ( 0.0000000000000000000, 0.6062556682370379100, 0.9499999999999999600 ) ) ;
#760 = DIRECTION ( 'NONE',  ( 0.0000000000000000000, 0.0000000000000000000, -1.000000000000000000 ) ) ;
#761 =( GEOMETRIC_REPRESENTATION_CONTEXT ( 3 ) GLOBAL_UNCERTAINTY_ASSIGNED_CONTEXT ( ( #490 ) ) GLOBAL_UNIT_ASSIGNED_CONTEXT ( ( #313, #324, #335 ) ) REPRESENTATION_CONTEXT ( 'NONE', 'WORKASPACE' ) );
#762 = ORIENTED_EDGE ( 'NONE', *, *, #863, .F. ) ;
#763 = VECTOR ( 'NONE', #275, 1000.000000000000000 ) ;
#764 = ORIENTED_EDGE ( 'NONE', *, *, #851, .F. ) ;
#765 = CARTESIAN_POINT ( 'NONE',  ( -0.7500000000000000000, -0.6622479918492942800, 0.2302929498360173400 ) ) ;
#766 = CYLINDRICAL_SURFACE ( 'NONE', #852, 0.1999999999999999800 ) ;
#767 = ORIENTED_EDGE ( 'NONE', *, *, #948, .T. ) ;
#768 = LINE ( 'NONE', #235, #726 ) ;
#769 = ORIENTED_EDGE ( 'NONE', *, *, #890, .F. ) ;
#770 = LINE ( 'NONE', #129, #763 ) ;
#771 = VECTOR ( 'NONE', #182, 1000.000000000000000 ) ;
#772 =( LENGTH_UNIT ( ) NAMED_UNIT ( * ) SI_UNIT ( .MILLI., .METRE. ) );
#773 = EDGE_CURVE ( 'NONE', #979, #301, #1105, .T. ) ;
#774 = LINE ( 'NONE', #118, #784 ) ;
#775 = CARTESIAN_POINT ( 'NONE',  ( 1.149999999999999900, -0.9917501570555777900, 0.3499999999999999200 ) ) ;
#776 = AXIS2_PLACEMENT_3D ( 'NONE', #1143, #1211, #1226 ) ;
#777 = FACE_OUTER_BOUND ( 'NONE', #1010, .T. ) ;
#778 =( NAMED_UNIT ( * ) PLANE_ANGLE_UNIT ( ) SI_UNIT ( $, .RADIAN. ) );
#779 = CARTESIAN_POINT ( 'NONE',  ( -0.2000000000000000100, 0.6368767004711106700, 0.2999999999999805000 ) ) ;
#780 =( NAMED_UNIT ( * ) SI_UNIT ( $, .STERADIAN. ) SOLID_ANGLE_UNIT ( ) );
#781 = EDGE_CURVE ( 'NONE', #43, #979, #411, .T. ) ;
#782 = VECTOR ( 'NONE', #44, 1000.000000000000000 ) ;
#783 = ORIENTED_EDGE ( 'NONE', *, *, #159, .T. ) ;
#784 = VECTOR ( 'NONE', #123, 1000.000000000000000 ) ;
#785 = PLANE ( 'NONE',  #15 ) ;
#786 = ORIENTED_EDGE ( 'NONE', *, *, #673, .T. ) ;
#787 = CYLINDRICAL_SURFACE ( 'NONE', #930, 0.1999999999999999800 ) ;
#788 = LINE ( 'NONE', #1281, #782 ) ;
#789 = FACE_OUTER_BOUND ( 'NONE', #1266, .T. ) ;
#790 = FACE_OUTER_BOUND ( 'NONE', #1272, .T. ) ;
#791 = CYLINDRICAL_SURFACE ( 'NONE', #951, 0.1999999999999999800 ) ;
#792 = DIRECTION ( 'NONE',  ( -1.000000000000000000, -0.0000000000000000000, -0.0000000000000000000 ) ) ;
#793 = MECHANICAL_DESIGN_GEOMETRIC_PRESENTATION_REPRESENTATION (  '', ( #818 ), #761 ) ;
#794 = CARTESIAN_POINT ( 'NONE',  ( 0.7500000000000000000, -0.7783690145618099600, 0.3514989907064389200 ) ) ;
#795 = DIRECTION ( 'NONE',  ( 0.0000000000000000000, 0.0000000000000000000, 1.000000000000000000 ) ) ;
#796 = CARTESIAN_POINT ( 'NONE',  ( 1.149999999999999900, -0.6622479918492938400, 0.2302929498360173400 ) ) ;
#797 = PRESENTATION_LAYER_ASSIGNMENT (  '', '', ( #818 ) ) ;
#798 = ORIENTED_EDGE ( 'NONE', *, *, #192, .T. ) ;
#799 = EDGE_CURVE ( 'NONE', #174, #208, #1097, .T. ) ;
#800 = LINE ( 'NONE', #558, #845 ) ;
#801 = ORIENTED_EDGE ( 'NONE', *, *, #661, .F. ) ;
#802 = VECTOR ( 'NONE', #1112, 1000.000000000000000 ) ;
#803 = ORIENTED_EDGE ( 'NONE', *, *, #228, .F. ) ;
#804 = CARTESIAN_POINT ( 'NONE',  ( -0.7500000000000000000, -0.9917501570555777900, 0.3499999999999999200 ) ) ;
#805 = ORIENTED_EDGE ( 'NONE', *, *, #863, .T. ) ;
#806 = LINE ( 'NONE', #1101, #802 ) ;
#807 = DIRECTION ( 'NONE',  ( 0.0000000000000000000, 0.0000000000000000000, 1.000000000000000000 ) ) ;
#808 = CARTESIAN_POINT ( 'NONE',  ( 0.2000000000000000100, 0.6368767004711106700, 0.2999999999999805000 ) ) ;
#809 = EDGE_CURVE ( 'NONE', #83, #208, #393, .T. ) ;
#810 = CARTESIAN_POINT ( 'NONE',  ( -0.7500000000000000000, -0.6368767004711106700, 0.2999999999999805000 ) ) ;
#811 = AXIS2_PLACEMENT_3D ( 'NONE', #264, #295, #297 ) ;
#812 = PLANE ( 'NONE',  #1051 ) ;
#813 = DIRECTION ( 'NONE',  ( 0.0000000000000000000, 0.0000000000000000000, 1.000000000000000000 ) ) ;
#814 = DIRECTION ( 'NONE',  ( -1.000000000000000000, 0.0000000000000000000, -0.0000000000000000000 ) ) ;
#815 = EDGE_CURVE ( 'NONE', #301, #174, #395, .T. ) ;
#816 = EDGE_LOOP ( 'NONE', ( #652, #653, #663, #664 ) ) ;
#817 = DIRECTION ( 'NONE',  ( -1.000000000000000000, 0.0000000000000000000, -0.0000000000000000000 ) ) ;
#818 = STYLED_ITEM ( 'NONE', ( #709 ), #441 ) ;
#819 = ORIENTED_EDGE ( 'NONE', *, *, #159, .F. ) ;
#820 = ORIENTED_EDGE ( 'NONE', *, *, #827, .F. ) ;
#821 = FACE_OUTER_BOUND ( 'NONE', #1110, .T. ) ;
#822 = FACE_OUTER_BOUND ( 'NONE', #1201, .T. ) ;
#823 = FACE_OUTER_BOUND ( 'NONE', #1280, .T. ) ;
#824 = FACE_OUTER_BOUND ( 'NONE', #1217, .T. ) ;
#825 = CARTESIAN_POINT ( 'NONE',  ( 0.0000000000000000000, 0.0000000000000000000, 0.05000000000000000300 ) ) ;
#826 = AXIS2_PLACEMENT_3D ( 'NONE', #1094, #1298, #1079 ) ;
#827 = EDGE_CURVE ( 'NONE', #301, #361, #387, .T. ) ;
#828 = CARTESIAN_POINT ( 'NONE',  ( -0.2000000000000000100, 0.6368767004711106700, 0.2999999999999805000 ) ) ;
#829 = EDGE_CURVE ( 'NONE', #422, #978, #374, .T. ) ;
#830 = PLANE ( 'NONE',  #888 ) ;
#831 = CARTESIAN_POINT ( 'NONE',  ( 0.7500000000000000000, -0.6622479918492938400, 0.2302929498360173400 ) ) ;
#832 = AXIS2_PLACEMENT_3D ( 'NONE', #1193, #1199, #1202 ) ;
#833 = ORIENTED_EDGE ( 'NONE', *, *, #231, .F. ) ;
#834 = EDGE_CURVE ( 'NONE', #385, #429, #371, .T. ) ;
#835 = FACE_OUTER_BOUND ( 'NONE', #914, .T. ) ;
#836 = ORIENTED_EDGE ( 'NONE', *, *, #209, .F. ) ;
#837 = EDGE_CURVE ( 'NONE', #511, #388, #368, .T. ) ;
#838 = FACE_OUTER_BOUND ( 'NONE', #132, .T. ) ;
#839 = CARTESIAN_POINT ( 'NONE',  ( -1.149999999999999900, -0.6500000000000001300, 0.4499999999999804700 ) ) ;
#840 = EDGE_LOOP ( 'NONE', ( #196, #200, #146, #127 ) ) ;
#841 = AXIS2_PLACEMENT_3D ( 'NONE', #157, #153, #140 ) ;
#842 = EDGE_LOOP ( 'NONE', ( #455, #469, #476, #491, #506, #525, #548, #567, #580 ) ) ;
#843 = DIRECTION ( 'NONE',  ( 0.0000000000000000000, -0.3420201433256632700, -0.9396926207859103200 ) ) ;
#844 = VECTOR ( 'NONE', #907, 1000.000000000000000 ) ;
#845 = VECTOR ( 'NONE', #1303, 1000.000000000000000 ) ;
#846 = DIRECTION ( 'NONE',  ( -1.000000000000000000, 0.0000000000000000000, -0.0000000000000000000 ) ) ;
#847 = VECTOR ( 'NONE', #691, 1000.000000000000100 ) ;
#848 = CARTESIAN_POINT ( 'NONE',  ( 1.149999999999999900, -0.6622479918492942800, 0.2302929498360173400 ) ) ;
#849 = CARTESIAN_POINT ( 'NONE',  ( 1.149999999999999900, -1.200000000000000000, 0.0000000000000000000 ) ) ;
#850 = CARTESIAN_POINT ( 'NONE',  ( 0.2000000000000000100, 0.6500000000000001300, 0.4499999999999804700 ) ) ;
#851 = EDGE_CURVE ( 'NONE', #1013, #289, #351, .T. ) ;
#852 = AXIS2_PLACEMENT_3D ( 'NONE', #56, #120, #103 ) ;
#853 = CARTESIAN_POINT ( 'NONE',  ( -0.2000000000000000100, 1.200000000000000000, 0.0000000000000000000 ) ) ;
#854 = DIRECTION ( 'NONE',  ( 0.0000000000000000000, -0.3420201433256632700, -0.9396926207859103200 ) ) ;
#855 = DIRECTION ( 'NONE',  ( -1.000000000000000000, -0.0000000000000000000, -0.0000000000000000000 ) ) ;
#856 = LINE ( 'NONE', #164, #847 ) ;
#857 = EDGE_LOOP ( 'NONE', ( #1027, #115, #1039, #160 ) ) ;
#858 = EDGE_CURVE ( 'NONE', #364, #289, #347, .T. ) ;
#859 = CIRCLE ( 'NONE', #1064, 0.3500000000000003100 ) ;
#860 = ORIENTED_EDGE ( 'NONE', *, *, #963, .T. ) ;
#861 = CARTESIAN_POINT ( 'NONE',  ( 1.149999999999999900, -0.6368767004711106700, 0.2999999999999805000 ) ) ;
#862 = ORIENTED_EDGE ( 'NONE', *, *, #827, .T. ) ;
#863 = EDGE_CURVE ( 'NONE', #404, #207, #355, .T. ) ;
#864 = VECTOR ( 'NONE', #1009, 1000.000000000000100 ) ;
#865 = LINE ( 'NONE', #765, #844 ) ;
#866 = CIRCLE ( 'NONE', #1080, 0.3500000000000003100 ) ;
#867 = DIRECTION ( 'NONE',  ( -1.000000000000000000, 0.0000000000000000000, -0.0000000000000000000 ) ) ;
#868 = LINE ( 'NONE', #1141, #864 ) ;
#869 = CARTESIAN_POINT ( 'NONE',  ( -0.7500000000000000000, -0.6368767004711106700, 0.2999999999999805000 ) ) ;
#870 = DIRECTION ( 'NONE',  ( -1.000000000000000000, 0.0000000000000000000, 0.0000000000000000000 ) ) ;
#871 = EDGE_CURVE ( 'NONE', #208, #422, #341, .T. ) ;
#872 = DIRECTION ( 'NONE',  ( -0.0000000000000000000, -0.08715574274766350900, -0.9961946980917451000 ) ) ;
#873 = DIRECTION ( 'NONE',  ( 0.0000000000000000000, -0.9961946980917451000, -0.08715574274766352300 ) ) ;
#874 = ORIENTED_EDGE ( 'NONE', *, *, #258, .F. ) ;
#875 = FACE_OUTER_BOUND ( 'NONE', #1006, .T. ) ;
#876 = ORIENTED_EDGE ( 'NONE', *, *, #834, .F. ) ;
#877 = LINE ( 'NONE', #171, #884 ) ;
#878 = ORIENTED_EDGE ( 'NONE', *, *, #584, .F. ) ;
#879 = EDGE_CURVE ( 'NONE', #388, #320, #328, .T. ) ;
#880 = FACE_OUTER_BOUND ( 'NONE', #96, .T. ) ;
#881 = LINE ( 'NONE', #1134, #1092 ) ;
#882 = DIRECTION ( 'NONE',  ( 0.0000000000000000000, -0.08715574274766352300, 0.9961946980917451000 ) ) ;
#883 = CYLINDRICAL_SURFACE ( 'NONE', #1125, 0.3500000000000003100 ) ;
#884 = VECTOR ( 'NONE', #239, 1000.000000000000000 ) ;
#885 = EDGE_CURVE ( 'NONE', #301, #422, #317, .T. ) ;
#886 = VECTOR ( 'NONE', #122, 1000.000000000000200 ) ;
#887 = CARTESIAN_POINT ( 'NONE',  ( 1.149999999999999900, -0.6622479918492938400, 0.2302929498360173400 ) ) ;
#888 = AXIS2_PLACEMENT_3D ( 'NONE', #861, #873, #882 ) ;
#889 = EDGE_CURVE ( 'NONE', #1077, #577, #322, .T. ) ;
#890 = EDGE_CURVE ( 'NONE', #543, #1013, #309, .T. ) ;
#891 = FACE_OUTER_BOUND ( 'NONE', #1067, .T. ) ;
#892 = ORIENTED_EDGE ( 'NONE', *, *, #165, .F. ) ;
#893 = DIRECTION ( 'NONE',  ( 0.0000000000000000000, 0.08715574274766352300, 0.9961946980917451000 ) ) ;
#894 = LINE ( 'NONE', #91, #912 ) ;
#895 = LINE ( 'NONE', #145, #886 ) ;
#896 = ORIENTED_EDGE ( 'NONE', *, *, #748, .F. ) ;
#897 = LINE ( 'NONE', #152, #549 ) ;
#898 = CARTESIAN_POINT ( 'NONE',  ( 0.7500000000000000000, -1.200000000000000000, 0.0000000000000000000 ) ) ;
#899 = LINE ( 'NONE', #340, #919 ) ;
#900 = CARTESIAN_POINT ( 'NONE',  ( 1.406255668237037700, 0.6500000000000000200, 0.9499999999999999600 ) ) ;
#901 = AXIS2_PLACEMENT_3D ( 'NONE', #80, #64, #69 ) ;
#902 = CARTESIAN_POINT ( 'NONE',  ( 0.2000000000000000100, 1.200000000000000000, 0.0000000000000000000 ) ) ;
#903 = AXIS2_PLACEMENT_3D ( 'NONE', #808, #792, #807 ) ;
#904 = EDGE_CURVE ( 'NONE', #1077, #388, #254, .T. ) ;
#905 = CARTESIAN_POINT ( 'NONE',  ( 0.7500000000000000000, -0.9911404091243630800, 0.3499999999999999800 ) ) ;
#906 = AXIS2_PLACEMENT_3D ( 'NONE', #280, #283, #285 ) ;
#907 = DIRECTION ( 'NONE',  ( -1.000000000000000000, 0.0000000000000000000, -0.0000000000000000000 ) ) ;
#908 = EDGE_CURVE ( 'NONE', #992, #1077, #277, .T. ) ;
#909 = ORIENTED_EDGE ( 'NONE', *, *, #717, .F. ) ;
#910 = EDGE_LOOP ( 'NONE', ( #114, #960, #45, #28 ) ) ;
#911 = DIRECTION ( 'NONE',  ( -1.000000000000000000, -0.0000000000000000000, -0.0000000000000000000 ) ) ;
#912 = VECTOR ( 'NONE', #119, 1000.000000000000100 ) ;
#913 = CARTESIAN_POINT ( 'NONE',  ( 0.2000000000000000100, 1.200000000000000000, 0.1499999999999999900 ) ) ;
#914 = EDGE_LOOP ( 'NONE', ( #878, #707, #711, #117 ) ) ;
#915 = FACE_OUTER_BOUND ( 'NONE', #1177, .T. ) ;
#916 = VECTOR ( 'NONE', #57, 1000.000000000000000 ) ;
#917 = ORIENTED_EDGE ( 'NONE', *, *, #223, .F. ) ;
#918 = EDGE_CURVE ( 'NONE', #978, #979, #307, .T. ) ;
#919 = VECTOR ( 'NONE', #154, 1000.000000000000000 ) ;
#920 = FACE_OUTER_BOUND ( 'NONE', #1247, .T. ) ;
#921 = LINE ( 'NONE', #33, #1238 ) ;
#922 = EDGE_CURVE ( 'NONE', #174, #43, #271, .T. ) ;
#923 = DIRECTION ( 'NONE',  ( -1.000000000000000000, -0.0000000000000000000, -0.0000000000000000000 ) ) ;
#924 = AXIS2_PLACEMENT_3D ( 'NONE', #759, #109, #101 ) ;
#925 = PLANE ( 'NONE',  #333 ) ;
#926 = DIRECTION ( 'NONE',  ( 0.0000000000000000000, 0.0000000000000000000, 1.000000000000000000 ) ) ;
#927 = DIRECTION ( 'NONE',  ( 0.0000000000000000000, -0.9396926207859104300, 0.3420201433256633800 ) ) ;
#928 = CARTESIAN_POINT ( 'NONE',  ( -1.149999999999999900, -0.9917501570555787800, 0.1499999999999999400 ) ) ;
#929 = EDGE_CURVE ( 'NONE', #361, #92, #268, .T. ) ;
#930 = AXIS2_PLACEMENT_3D ( 'NONE', #599, #574, #756 ) ;
#931 = DIRECTION ( 'NONE',  ( 0.0000000000000000000, 0.9961946980917451000, -0.08715574274766352300 ) ) ;
#932 = FACE_OUTER_BOUND ( 'NONE', #21, .T. ) ;
#933 = VERTEX_POINT ( 'NONE', #1136 ) ;
#934 = DIRECTION ( 'NONE',  ( 0.0000000000000000000, 0.3420201433256633300, 0.9396926207859103200 ) ) ;
#935 = CIRCLE ( 'NONE', #618, 0.1999999999999999800 ) ;
#936 = ORIENTED_EDGE ( 'NONE', *, *, #922, .T. ) ;
#937 = LINE ( 'NONE', #41, #916 ) ;
#938 = ORIENTED_EDGE ( 'NONE', *, *, #904, .T. ) ;
#939 = CARTESIAN_POINT ( 'NONE',  ( -0.7500000000000000000, -0.8038116328983958600, 0.2815959713348666900 ) ) ;
#940 = LINE ( 'NONE', #1245, #957 ) ;
#941 = FACE_OUTER_BOUND ( 'NONE', #1299, .T. ) ;
#942 = PLANE ( 'NONE',  #38 ) ;
#943 = EDGE_CURVE ( 'NONE', #345, #79, #279, .T. ) ;
#944 = VECTOR ( 'NONE', #53, 1000.000000000000000 ) ;
#945 = CARTESIAN_POINT ( 'NONE',  ( 1.149999999999999900, -0.9911404091243624100, 0.0000000000000000000 ) ) ;
#946 = EDGE_CURVE ( 'NONE', #370, #404, #1030, .T. ) ;
#947 = CARTESIAN_POINT ( 'NONE',  ( -1.149999999999999900, -0.9911404091243624100, 0.0000000000000000000 ) ) ;
#948 = EDGE_CURVE ( 'NONE', #79, #364, #291, .T. ) ;
#949 = EDGE_LOOP ( 'NONE', ( #678, #680, #684, #693 ) ) ;
#950 = SURFACE_STYLE_USAGE ( .BOTH. , #976 ) ;
#951 = AXIS2_PLACEMENT_3D ( 'NONE', #804, #817, #813 ) ;
#952 = CYLINDRICAL_SURFACE ( 'NONE', #826, 0.1505729756315023200 ) ;
#953 = ORIENTED_EDGE ( 'NONE', *, *, #889, .F. ) ;
#954 = CIRCLE ( 'NONE', #832, 0.1505729756315023500 ) ;
#955 = EDGE_LOOP ( 'NONE', ( #11, #1306, #974, #995 ) ) ;
#956 = FACE_OUTER_BOUND ( 'NONE', #1103, .T. ) ;
#957 = VECTOR ( 'NONE', #1255, 1000.000000000000000 ) ;
#958 = ORIENTED_EDGE ( 'NONE', *, *, #224, .F. ) ;
#959 = CARTESIAN_POINT ( 'NONE',  ( 1.149999999999999900, -0.9911404091243630800, 0.3499999999999999800 ) ) ;
#960 = ORIENTED_EDGE ( 'NONE', *, *, #321, .F. ) ;
#961 = DIRECTION ( 'NONE',  ( -1.000000000000000000, -0.0000000000000000000, -0.0000000000000000000 ) ) ;
#962 = CARTESIAN_POINT ( 'NONE',  ( -0.7500000000000000000, -0.9917501570555787800, 0.1499999999999999400 ) ) ;
#963 = EDGE_CURVE ( 'NONE', #528, #207, #1028, .T. ) ;
#964 = DIRECTION ( 'NONE',  ( 0.0000000000000000000, 0.0000000000000000000, 1.000000000000000000 ) ) ;
#965 = DIRECTION ( 'NONE',  ( 0.0000000000000000000, -1.000000000000000000, 0.0000000000000000000 ) ) ;
#966 = CARTESIAN_POINT ( 'NONE',  ( -1.450000000000000400, 0.6500000000000000200, 0.4499999999999804700 ) ) ;
#967 = DIRECTION ( 'NONE',  ( -1.000000000000000000, 0.0000000000000000000, -0.0000000000000000000 ) ) ;
#968 = DIRECTION ( 'NONE',  ( -0.0000000000000000000, 1.000000000000000000, -0.0000000000000000000 ) ) ;
#969 = CARTESIAN_POINT ( 'NONE',  ( -0.7500000000000000000, -0.7783690145618101800, 0.3514989907064389700 ) ) ;
#970 = VERTEX_POINT ( 'NONE', #265 ) ;
#971 = ORIENTED_EDGE ( 'NONE', *, *, #781, .T. ) ;
#972 = ORIENTED_EDGE ( 'NONE', *, *, #334, .T. ) ;
#973 = ORIENTED_EDGE ( 'NONE', *, *, #879, .T. ) ;
#974 = ORIENTED_EDGE ( 'NONE', *, *, #382, .T. ) ;
#975 = ORIENTED_EDGE ( 'NONE', *, *, #352, .F. ) ;
#976 = SURFACE_SIDE_STYLE ('',( #617 ) ) ;
#977 = VERTEX_POINT ( 'NONE', #25 ) ;
#978 = VERTEX_POINT ( 'NONE', #1286 ) ;
#979 = VERTEX_POINT ( 'NONE', #1274 ) ;
#980 = ORIENTED_EDGE ( 'NONE', *, *, #403, .F. ) ;
#981 = DIRECTION ( 'NONE',  ( 0.0000000000000000000, -1.000000000000000000, 0.0000000000000000000 ) ) ;
#982 = APPLICATION_PROTOCOL_DEFINITION ( 'draft international standard', 'automotive_design', 1998, #983 ) ;
#983 = APPLICATION_CONTEXT ( 'automotive_design' ) ;
#984 = DIRECTION ( 'NONE',  ( -1.668003342285391300E-016, 1.000000000000000000, 0.0000000000000000000 ) ) ;
#985 = ORIENTED_EDGE ( 'NONE', *, *, #228, .T. ) ;
#986 = CARTESIAN_POINT ( 'NONE',  ( 1.149999999999999900, -0.7783690145618099600, 0.3514989907064389200 ) ) ;
#987 = PRODUCT_CONTEXT ( 'NONE', #1084, 'mechanical' ) ;
#988 = ORIENTED_EDGE ( 'NONE', *, *, #298, .F. ) ;
#989 = ORIENTED_EDGE ( 'NONE', *, *, #688, .T. ) ;
#990 = DIRECTION ( 'NONE',  ( 0.0000000000000000000, 0.3420201433256644900, 0.9396926207859098700 ) ) ;
#991 = AXIS2_PLACEMENT_3D ( 'NONE', #12, #1122, #1116 ) ;
#992 = VERTEX_POINT ( 'NONE', #1264 ) ;
#993 = EDGE_LOOP ( 'NONE', ( #980, #54, #994, #104 ) ) ;
#994 = ORIENTED_EDGE ( 'NONE', *, *, #418, .T. ) ;
#995 = ORIENTED_EDGE ( 'NONE', *, *, #399, .T. ) ;
#996 = ORIENTED_EDGE ( 'NONE', *, *, #908, .F. ) ;
#997 = ORIENTED_EDGE ( 'NONE', *, *, #375, .T. ) ;
#998 = FILL_AREA_STYLE ('',( #732 ) ) ;
#999 = VERTEX_POINT ( 'NONE', #1305 ) ;
#1000 = DIRECTION ( 'NONE',  ( -0.0000000000000000000, 0.08715574274766350900, -0.9961946980917451000 ) ) ;
#1001 = CARTESIAN_POINT ( 'NONE',  ( -1.406255668237038000, -0.6500000000000000200, 0.9499999999999999600 ) ) ;
#1002 = DIRECTION ( 'NONE',  ( -1.000000000000000000, 0.0000000000000000000, -0.0000000000000000000 ) ) ;
#1003 = ORIENTED_EDGE ( 'NONE', *, *, #403, .T. ) ;
#1004 = ORIENTED_EDGE ( 'NONE', *, *, #904, .F. ) ;
#1005 = VERTEX_POINT ( 'NONE', #485 ) ;
#1006 = EDGE_LOOP ( 'NONE', ( #583, #591, #595, #592 ) ) ;
#1007 = CARTESIAN_POINT ( 'NONE',  ( 1.149999999999999900, -1.200000000000000000, 0.0000000000000000000 ) ) ;
#1008 = VERTEX_POINT ( 'NONE', #1268 ) ;
#1009 = DIRECTION ( 'NONE',  ( 0.0000000000000000000, -0.3420201433256632700, -0.9396926207859103200 ) ) ;
#1010 = EDGE_LOOP ( 'NONE', ( #1144, #1025, #1155, #217 ) ) ;
#1011 = AXIS2_PLACEMENT_3D ( 'NONE', #24, #245, #194 ) ;
#1012 = CLOSED_SHELL ( 'NONE', ( #330, #148, #204, #141, #311, #238, #454, #5, #88, #357, #19 ) ) ;
#1013 = VERTEX_POINT ( 'NONE', #505 ) ;
#1014 = CARTESIAN_POINT ( 'NONE',  ( -0.2000000000000000100, 1.200000000000000000, 0.0000000000000000000 ) ) ;
#1015 = CARTESIAN_POINT ( 'NONE',  ( 0.7500000000000000000, -1.200000000000000000, 0.1499999999999999900 ) ) ;
#1016 = CARTESIAN_POINT ( 'NONE',  ( -0.7500000000000000000, -0.6368767004711106700, 0.2999999999999805000 ) ) ;
#1017 = FILL_AREA_STYLE_COLOUR ( '', #570 ) ;
#1018 = ORIENTED_EDGE ( 'NONE', *, *, #246, .T. ) ;
#1019 = CARTESIAN_POINT ( 'NONE',  ( -0.7500000000000000000, -0.6500000000000001300, 0.4499999999999804700 ) ) ;
#1020 = DIRECTION ( 'NONE',  ( 1.000000000000000000, 0.0000000000000000000, 0.0000000000000000000 ) ) ;
#1021 = VERTEX_POINT ( 'NONE', #1260 ) ;
#1022 = ORIENTED_EDGE ( 'NONE', *, *, #837, .T. ) ;
#1023 = VERTEX_POINT ( 'NONE', #1262 ) ;
#1024 = EDGE_LOOP ( 'NONE', ( #606, #582, #609, #630 ) ) ;
#1025 = ORIENTED_EDGE ( 'NONE', *, *, #424, .F. ) ;
#1026 = FILL_AREA_STYLE ('',( #1017 ) ) ;
#1027 = ORIENTED_EDGE ( 'NONE', *, *, #614, .F. ) ;
#1028 = CIRCLE ( 'NONE', #405, 0.1999999999999999800 ) ;
#1029 = CARTESIAN_POINT ( 'NONE',  ( -0.2000000000000000100, 0.6622479918492938400, 0.2302929498360173400 ) ) ;
#1030 = CIRCLE ( 'NONE', #427, 0.1999999999999999800 ) ;
#1031 = SURFACE_SIDE_STYLE ('',( #530 ) ) ;
#1032 =( NAMED_UNIT ( * ) SI_UNIT ( $, .STERADIAN. ) SOLID_ANGLE_UNIT ( ) );
#1033 = DIRECTION ( 'NONE',  ( 0.0000000000000000000, 0.0000000000000000000, 1.000000000000000000 ) ) ;
#1034 = DIRECTION ( 'NONE',  ( -0.0000000000000000000, 0.3420201433256632700, -0.9396926207859103200 ) ) ;
#1035 = LINE ( 'NONE', #458, #685 ) ;
#1036 = EDGE_LOOP ( 'NONE', ( #632, #634, #647, #650 ) ) ;
#1037 = SURFACE_STYLE_USAGE ( .BOTH. , #1031 ) ;
#1038 = VECTOR ( 'NONE', #514, 1000.000000000000200 ) ;
#1039 = ORIENTED_EDGE ( 'NONE', *, *, #625, .T. ) ;
#1040 =( NAMED_UNIT ( * ) PLANE_ANGLE_UNIT ( ) SI_UNIT ( $, .RADIAN. ) );
#1041 = CIRCLE ( 'NONE', #675, 0.1505729756315023500 ) ;
#1042 = ORIENTED_EDGE ( 'NONE', *, *, #717, .T. ) ;
#1043 = CARTESIAN_POINT ( 'NONE',  ( 0.2000000000000000100, 0.9911404091243624100, 0.0000000000000000000 ) ) ;
#1044 = VERTEX_POINT ( 'NONE', #1253 ) ;
#1045 =( LENGTH_UNIT ( ) NAMED_UNIT ( * ) SI_UNIT ( .MILLI., .METRE. ) );
#1046 = FACE_OUTER_BOUND ( 'NONE', #949, .T. ) ;
#1047 = DIRECTION ( 'NONE',  ( 3.336006684570782600E-016, -1.000000000000000000, 0.0000000000000000000 ) ) ;
#1048 = SURFACE_STYLE_USAGE ( .BOTH. , #1071 ) ;
#1049 = PRODUCT_DEFINITION_SHAPE ( 'NONE', 'NONE',  #282 ) ;
#1050 =( LENGTH_UNIT ( ) NAMED_UNIT ( * ) SI_UNIT ( .MILLI., .METRE. ) );
#1051 = AXIS2_PLACEMENT_3D ( 'NONE', #77, #39, #37 ) ;
#1052 = ORIENTED_EDGE ( 'NONE', *, *, #851, .T. ) ;
#1053 = PLANE ( 'NONE',  #65 ) ;
#1054 = FACE_OUTER_BOUND ( 'NONE', #1111, .T. ) ;
#1055 = ORIENTED_EDGE ( 'NONE', *, *, #593, .F. ) ;
#1056 = CYLINDRICAL_SURFACE ( 'NONE', #139, 0.3500000000000003100 ) ;
#1057 = ORIENTED_EDGE ( 'NONE', *, *, #809, .F. ) ;
#1058 = FACE_OUTER_BOUND ( 'NONE', #1232, .T. ) ;
#1059 = FACE_OUTER_BOUND ( 'NONE', #1243, .T. ) ;
#1060 = ORIENTED_EDGE ( 'NONE', *, *, #815, .T. ) ;
#1061 = FACE_OUTER_BOUND ( 'NONE', #857, .T. ) ;
#1062 = FACE_OUTER_BOUND ( 'NONE', #1256, .T. ) ;
#1063 = DIRECTION ( 'NONE',  ( -1.000000000000000000, 0.0000000000000000000, -0.0000000000000000000 ) ) ;
#1064 = AXIS2_PLACEMENT_3D ( 'NONE', #6, #1, #376 ) ;
#1065 =( NAMED_UNIT ( * ) PLANE_ANGLE_UNIT ( ) SI_UNIT ( $, .RADIAN. ) );
#1066 = CARTESIAN_POINT ( 'NONE',  ( 1.149999999999999900, -1.200000000000000000, 0.1499999999999999900 ) ) ;
#1067 = EDGE_LOOP ( 'NONE', ( #58, #988, #81, #46 ) ) ;
#1068 = CYLINDRICAL_SURFACE ( 'NONE', #72, 0.1505729756315023200 ) ;
#1069 = EDGE_LOOP ( 'NONE', ( #1235, #1244, #1258, #1257 ) ) ;
#1070 = DIRECTION ( 'NONE',  ( 0.08682659386424423900, 0.08682659386424426700, 0.9924325091389677400 ) ) ;
#1071 = SURFACE_SIDE_STYLE ('',( #237 ) ) ;
#1072 = FACE_OUTER_BOUND ( 'NONE', #840, .T. ) ;
#1073 = ORIENTED_EDGE ( 'NONE', *, *, #929, .F. ) ;
#1074 = CARTESIAN_POINT ( 'NONE',  ( -1.401685193205004500, -0.6016851932050044600, 1.002240768664610000 ) ) ;
#1075 = FACE_OUTER_BOUND ( 'NONE', #1295, .T. ) ;
#1076 = ORIENTED_EDGE ( 'NONE', *, *, #299, .T. ) ;
#1077 = VERTEX_POINT ( 'NONE', #1237 ) ;
#1078 = VERTEX_POINT ( 'NONE', #1230 ) ;
#1079 = DIRECTION ( 'NONE',  ( 0.0000000000000000000, 0.0000000000000000000, 1.000000000000000000 ) ) ;
#1080 = AXIS2_PLACEMENT_3D ( 'NONE', #52, #50, #48 ) ;
#1081 = DIRECTION ( 'NONE',  ( 0.0000000000000000000, 0.0000000000000000000, 1.000000000000000000 ) ) ;
#1082 = CARTESIAN_POINT ( 'NONE',  ( 0.2000000000000000100, 1.200000000000000000, 0.0000000000000000000 ) ) ;
#1083 = FILL_AREA_STYLE ('',( #1185 ) ) ;
#1084 = APPLICATION_CONTEXT ( 'automotive_design' ) ;
#1085 = ORIENTED_EDGE ( 'NONE', *, *, #758, .F. ) ;
#1086 = LINE ( 'NONE', #1289, #545 ) ;
#1087 = CLOSED_SHELL ( 'NONE', ( #220, #138, #3, #242, #211, #348, #16, #440, #10, #93 ) ) ;
#1088 = VECTOR ( 'NONE', #1292, 1000.000000000000000 ) ;
#1089 = EDGE_LOOP ( 'NONE', ( #135, #162, #274, #1055, #253, #247, #236, #300, #445 ) ) ;
#1090 = DIRECTION ( 'NONE',  ( -1.000000000000000000, -0.0000000000000000000, -0.0000000000000000000 ) ) ;
#1091 = DIRECTION ( 'NONE',  ( -3.336006684570782600E-016, 1.000000000000000000, 0.0000000000000000000 ) ) ;
#1092 = VECTOR ( 'NONE', #423, 1000.000000000000000 ) ;
#1093 = CIRCLE ( 'NONE', #1108, 0.1999999999999999800 ) ;
#1094 = CARTESIAN_POINT ( 'NONE',  ( -0.7500000000000000000, -0.6368767004711106700, 0.2999999999999805000 ) ) ;
#1095 = VECTOR ( 'NONE', #1291, 1000.000000000000000 ) ;
#1096 = VECTOR ( 'NONE', #1175, 1000.000000000000000 ) ;
#1097 = LINE ( 'NONE', #89, #390 ) ;
#1098 = DIRECTION ( 'NONE',  ( 0.0000000000000000000, 0.0000000000000000000, 1.000000000000000000 ) ) ;
#1099 = CARTESIAN_POINT ( 'NONE',  ( -0.7500000000000000000, -0.7783690145618099600, 0.3514989907064389200 ) ) ;
#1100 = AXIS2_PLACEMENT_3D ( 'NONE', #227, #488, #529 ) ;
#1101 = CARTESIAN_POINT ( 'NONE',  ( -0.7500000000000000000, -0.9911404091243624100, 0.0000000000000000000 ) ) ;
#1102 = DIRECTION ( 'NONE',  ( -1.000000000000000000, 0.0000000000000000000, -0.0000000000000000000 ) ) ;
#1103 = EDGE_LOOP ( 'NONE', ( #1288, #1284, #1233, #1189 ) ) ;
#1104 = CARTESIAN_POINT ( 'NONE',  ( 0.2000000000000000100, 0.9917501570555787800, 0.1499999999999999400 ) ) ;
#1105 = LINE ( 'NONE', #75, #397 ) ;
#1106 = ORIENTED_EDGE ( 'NONE', *, *, #223, .T. ) ;
#1107 = CARTESIAN_POINT ( 'NONE',  ( -0.7500000000000000000, -0.6368767004711106700, 0.2999999999999805000 ) ) ;
#1108 = AXIS2_PLACEMENT_3D ( 'NONE', #586, #645, #660 ) ;
#1109 = VERTEX_POINT ( 'NONE', #1224 ) ;
#1110 = EDGE_LOOP ( 'NONE', ( #233, #232, #218, #206 ) ) ;
#1111 = EDGE_LOOP ( 'NONE', ( #1296, #1085, #909, #936 ) ) ;
#1112 = DIRECTION ( 'NONE',  ( -1.000000000000000000, 0.0000000000000000000, -0.0000000000000000000 ) ) ;
#1113 = VERTEX_POINT ( 'NONE', #1220 ) ;
#1114 = DIRECTION ( 'NONE',  ( -1.000000000000000000, -0.0000000000000000000, -0.0000000000000000000 ) ) ;
#1115 = DIRECTION ( 'NONE',  ( -1.000000000000000000, 0.0000000000000000000, -0.0000000000000000000 ) ) ;
#1116 = DIRECTION ( 'NONE',  ( 1.000000000000000000, 0.0000000000000000000, 0.0000000000000000000 ) ) ;
#1117 = DIRECTION ( 'NONE',  ( 0.0000000000000000000, 0.0000000000000000000, -1.000000000000000000 ) ) ;
#1118 = ORIENTED_EDGE ( 'NONE', *, *, #773, .T. ) ;
#1119 = LINE ( 'NONE', #1209, #434 ) ;
#1120 = CARTESIAN_POINT ( 'NONE',  ( 1.149999999999999900, -1.200000000000000000, 0.1499999999999999900 ) ) ;
#1121 = AXIS2_PLACEMENT_3D ( 'NONE', #110, #166, #150 ) ;
#1122 = DIRECTION ( 'NONE',  ( 0.0000000000000000000, 0.0000000000000000000, 1.000000000000000000 ) ) ;
#1123 = PLANE ( 'NONE',  #776 ) ;
#1124 = APPLICATION_PROTOCOL_DEFINITION ( 'draft international standard', 'automotive_design', 1998, #1084 ) ;
#1125 = AXIS2_PLACEMENT_3D ( 'NONE', #125, #86, #40 ) ;
#1126 = DIRECTION ( 'NONE',  ( 0.08682659386424430900, -0.08682659386424426700, 0.9924325091389677400 ) ) ;
#1127 = CARTESIAN_POINT ( 'NONE',  ( -0.2000000000000000100, 0.8038116328983958600, 0.2815959713348666900 ) ) ;
#1128 =( NAMED_UNIT ( * ) SI_UNIT ( $, .STERADIAN. ) SOLID_ANGLE_UNIT ( ) );
#1129 = EDGE_LOOP ( 'NONE', ( #1178, #1190, #1191, #1206 ) ) ;
#1130 = EDGE_LOOP ( 'NONE', ( #1042, #1073, #820, #1060 ) ) ;
#1131 = FACE_OUTER_BOUND ( 'NONE', #1149, .T. ) ;
#1132 = CARTESIAN_POINT ( 'NONE',  ( 0.7500000000000000000, -0.9917501570555787800, 0.1499999999999999400 ) ) ;
#1133 = CLOSED_SHELL ( 'NONE', ( #362, #249, #73, #163, #168, #2, #314, #59, #128, #151, #63 ) ) ;
#1134 = CARTESIAN_POINT ( 'NONE',  ( 0.2000000000000000100, 1.200000000000000000, 0.1499999999999999900 ) ) ;
#1135 = FACE_OUTER_BOUND ( 'NONE', #1089, .T. ) ;
#1136 = CARTESIAN_POINT ( 'NONE',  ( 0.7500000000000000000, -1.200000000000000000, 0.1499999999999999900 ) ) ;
#1137 = VECTOR ( 'NONE', #814, 1000.000000000000000 ) ;
#1138 = CARTESIAN_POINT ( 'NONE',  ( -1.406255668237038400, 0.6062556682370379100, 0.9499999999999999600 ) ) ;
#1139 = DIRECTION ( 'NONE',  ( -0.0000000000000000000, 1.000000000000000000, -2.603128427748353100E-016 ) ) ;
#1140 =( NAMED_UNIT ( * ) PLANE_ANGLE_UNIT ( ) SI_UNIT ( $, .RADIAN. ) );
#1141 = CARTESIAN_POINT ( 'NONE',  ( -1.149999999999999900, -0.6622479918492938400, 0.2302929498360173400 ) ) ;
#1142 = AXIS2_PLACEMENT_3D ( 'NONE', #84, #107, #99 ) ;
#1143 = CARTESIAN_POINT ( 'NONE',  ( -1.406255668237038200, -4.691278309454311500E-016, 0.9499999999999999600 ) ) ;
#1144 = ORIENTED_EDGE ( 'NONE', *, *, #437, .F. ) ;
#1145 = DIRECTION ( 'NONE',  ( -0.0000000000000000000, 1.000000000000000000, -2.603128427748353100E-016 ) ) ;
#1146 = LINE ( 'NONE', #810, #1137 ) ;
#1147 = ORIENTED_EDGE ( 'NONE', *, *, #809, .T. ) ;
#1148 = VECTOR ( 'NONE', #923, 1000.000000000000000 ) ;
#1149 = EDGE_LOOP ( 'NONE', ( #767, #819, #836, #742 ) ) ;
#1150 = LINE ( 'NONE', #850, #1151 ) ;
#1151 = VECTOR ( 'NONE', #855, 1000.000000000000000 ) ;
#1152 = CYLINDRICAL_SURFACE ( 'NONE', #903, 0.1505729756315023200 ) ;
#1153 = FACE_OUTER_BOUND ( 'NONE', #816, .T. ) ;
#1154 = CARTESIAN_POINT ( 'NONE',  ( 1.149999999999999900, -0.9917501570555787800, 0.1499999999999999400 ) ) ;
#1155 = ORIENTED_EDGE ( 'NONE', *, *, #443, .T. ) ;
#1156 = LINE ( 'NONE', #1016, #1218 ) ;
#1157 = ORIENTED_EDGE ( 'NONE', *, *, #871, .T. ) ;
#1158 = FACE_OUTER_BOUND ( 'NONE', #1036, .T. ) ;
#1159 = EDGE_LOOP ( 'NONE', ( #752, #764, #769, #783 ) ) ;
#1160 = VECTOR ( 'NONE', #965, 1000.000000000000000 ) ;
#1161 = FACE_OUTER_BOUND ( 'NONE', #993, .T. ) ;
#1162 = ORIENTED_EDGE ( 'NONE', *, *, #175, .T. ) ;
#1163 = CARTESIAN_POINT ( 'NONE',  ( 0.2000000000000000100, 0.7783690145618101800, 0.3514989907064389700 ) ) ;
#1164 = CARTESIAN_POINT ( 'NONE',  ( 0.0000000000000000000, 0.0000000000000000000, 0.0000000000000000000 ) ) ;
#1165 = FACE_OUTER_BOUND ( 'NONE', #1024, .T. ) ;
#1166 = PLANE ( 'NONE',  #143 ) ;
#1167 = FACE_OUTER_BOUND ( 'NONE', #1159, .T. ) ;
#1168 = DIRECTION ( 'NONE',  ( -1.000000000000000000, 0.0000000000000000000, 0.0000000000000000000 ) ) ;
#1169 = DIRECTION ( 'NONE',  ( -0.0000000000000000000, 1.000000000000000000, -0.0000000000000000000 ) ) ;
#1170 = DIRECTION ( 'NONE',  ( 0.0000000000000000000, -1.000000000000000000, 0.0000000000000000000 ) ) ;
#1171 = DIRECTION ( 'NONE',  ( 1.000000000000000000, 0.0000000000000000000, 0.0000000000000000000 ) ) ;
#1172 = CARTESIAN_POINT ( 'NONE',  ( -1.450000000000000000, -0.6500000000000000200, 0.4499999999999804700 ) ) ;
#1173 = FACE_OUTER_BOUND ( 'NONE', #1129, .T. ) ;
#1174 = ORIENTED_EDGE ( 'NONE', *, *, #829, .T. ) ;
#1175 = DIRECTION ( 'NONE',  ( 1.000000000000000000, 0.0000000000000000000, 0.0000000000000000000 ) ) ;
#1176 = FACE_OUTER_BOUND ( 'NONE', #1301, .T. ) ;
#1177 = EDGE_LOOP ( 'NONE', ( #531, #512, #492, #489, #472, #465, #442, #426, #412 ) ) ;
#1178 = ORIENTED_EDGE ( 'NONE', *, *, #834, .T. ) ;
#1179 = FACE_OUTER_BOUND ( 'NONE', #842, .T. ) ;
#1180 = FACE_OUTER_BOUND ( 'NONE', #955, .T. ) ;
#1181 = DIRECTION ( 'NONE',  ( -0.0000000000000000000, -0.3420201433256644900, 0.9396926207859098700 ) ) ;
#1182 = VECTOR ( 'NONE', #846, 1000.000000000000000 ) ;
#1183 = AXIS2_PLACEMENT_3D ( 'NONE', #1285, #74, #76 ) ;
#1184 = CARTESIAN_POINT ( 'NONE',  ( -1.149999999999999900, -0.6622479918492942800, 0.2302929498360173400 ) ) ;
#1185 = FILL_AREA_STYLE_COLOUR ( '', #292 ) ;
#1186 = DIRECTION ( 'NONE',  ( 0.0000000000000000000, 1.000000000000000000, 0.0000000000000000000 ) ) ;
#1187 = CARTESIAN_POINT ( 'NONE',  ( 0.7500000000000000000, -1.200000000000000000, 0.0000000000000000000 ) ) ;
#1188 =( LENGTH_UNIT ( ) NAMED_UNIT ( * ) SI_UNIT ( .MILLI., .METRE. ) );
#1189 = ORIENTED_EDGE ( 'NONE', *, *, #815, .F. ) ;
#1190 = ORIENTED_EDGE ( 'NONE', *, *, #748, .T. ) ;
#1191 = ORIENTED_EDGE ( 'NONE', *, *, #929, .T. ) ;
#1192 = LINE ( 'NONE', #939, #1182 ) ;
#1193 = CARTESIAN_POINT ( 'NONE',  ( 0.2000000000000000100, 0.6368767004711106700, 0.2999999999999805000 ) ) ;
#1194 = ORIENTED_EDGE ( 'NONE', *, *, #731, .T. ) ;
#1195 = VECTOR ( 'NONE', #990, 1000.000000000000200 ) ;
#1196 = LINE ( 'NONE', #913, #1148 ) ;
#1197 = DIRECTION ( 'NONE',  ( -1.000000000000000000, -0.0000000000000000000, -0.0000000000000000000 ) ) ;
#1198 = DIRECTION ( 'NONE',  ( 0.0000000000000000000, -0.0000000000000000000, -1.000000000000000000 ) ) ;
#1199 = DIRECTION ( 'NONE',  ( 1.000000000000000000, 0.0000000000000000000, 0.0000000000000000000 ) ) ;
#1200 = DIRECTION ( 'NONE',  ( -0.0000000000000000000, -0.0000000000000000000, 1.000000000000000000 ) ) ;
#1201 = EDGE_LOOP ( 'NONE', ( #94, #108, #221, #975, #697, #113, #106, #67, #66 ) ) ;
#1202 = DIRECTION ( 'NONE',  ( 0.0000000000000000000, 0.0000000000000000000, -1.000000000000000000 ) ) ;
#1203 = AXIS2_PLACEMENT_3D ( 'NONE', #1282, #8, #20 ) ;
#1204 = VECTOR ( 'NONE', #984, 1000.000000000000000 ) ;
#1205 = LINE ( 'NONE', #962, #1208 ) ;
#1206 = ORIENTED_EDGE ( 'NONE', *, *, #758, .T. ) ;
#1207 = LINE ( 'NONE', #1019, #1231 ) ;
#1208 = VECTOR ( 'NONE', #1002, 1000.000000000000000 ) ;
#1209 = CARTESIAN_POINT ( 'NONE',  ( -0.2000000000000000100, 1.200000000000000000, 0.1499999999999999900 ) ) ;
#1210 = LINE ( 'NONE', #900, #1204 ) ;
#1211 = DIRECTION ( 'NONE',  ( -0.9961946980917458800, -3.323312171968036700E-016, 0.08715574274765482100 ) ) ;
#1212 = LINE ( 'NONE', #969, #1195 ) ;
#1213 = PLANE ( 'NONE',  #95 ) ;
#1214 = CARTESIAN_POINT ( 'NONE',  ( 0.7500000000000000000, -0.6368767004711106700, 0.2999999999999805000 ) ) ;
#1215 = EDGE_LOOP ( 'NONE', ( #198, #195, #188, #186 ) ) ;
#1216 = LINE ( 'NONE', #1029, #1221 ) ;
#1217 = EDGE_LOOP ( 'NONE', ( #134, #126, #124, #90 ) ) ;
#1218 = VECTOR ( 'NONE', #1000, 1000.000000000000000 ) ;
#1219 = ORIENTED_EDGE ( 'NONE', *, *, #922, .F. ) ;
#1220 = CARTESIAN_POINT ( 'NONE',  ( -1.149999999999999900, -1.200000000000000000, 0.1499999999999999900 ) ) ;
#1221 = VECTOR ( 'NONE', #1034, 1000.000000000000100 ) ;
#1222 = EDGE_LOOP ( 'NONE', ( #184, #176, #173, #170 ) ) ;
#1223 = CIRCLE ( 'NONE', #9, 0.1505729756315023500 ) ;
#1224 = CARTESIAN_POINT ( 'NONE',  ( 1.149999999999999900, -0.6500000000000001300, 0.4499999999999804700 ) ) ;
#1225 = CARTESIAN_POINT ( 'NONE',  ( -1.415004534589630500, -4.720464586088977300E-016, 0.05000000000000000300 ) ) ;
#1226 = DIRECTION ( 'NONE',  ( -3.336006684570782600E-016, 1.000000000000000000, 0.0000000000000000000 ) ) ;
#1227 = DIRECTION ( 'NONE',  ( 1.000000000000000000, 0.0000000000000000000, -0.0000000000000000000 ) ) ;
#1228 = CARTESIAN_POINT ( 'NONE',  ( 0.2000000000000000100, 0.7783690145618101800, 0.3514989907064389700 ) ) ;
#1229 = DIRECTION ( 'NONE',  ( -0.0000000000000000000, -0.3420201433256644900, 0.9396926207859098700 ) ) ;
#1230 = CARTESIAN_POINT ( 'NONE',  ( 0.7500000000000000000, -0.8038116328983958600, 0.2815959713348666900 ) ) ;
#1231 = VECTOR ( 'NONE', #1063, 1000.000000000000000 ) ;
#1232 = EDGE_LOOP ( 'NONE', ( #989, #892, #874, #724 ) ) ;
#1233 = ORIENTED_EDGE ( 'NONE', *, *, #799, .F. ) ;
#1234 = CARTESIAN_POINT ( 'NONE',  ( -0.2000000000000000100, 0.7783690145618101800, 0.3514989907064389700 ) ) ;
#1235 = ORIENTED_EDGE ( 'NONE', *, *, #885, .F. ) ;
#1236 = LINE ( 'NONE', #1099, #1250 ) ;
#1237 = CARTESIAN_POINT ( 'NONE',  ( 0.2000000000000000100, 0.9911404091243624100, 0.0000000000000000000 ) ) ;
#1238 = VECTOR ( 'NONE', #1293, 1000.000000000000000 ) ;
#1239 = CARTESIAN_POINT ( 'NONE',  ( -1.149999999999999900, -0.6368767004711106700, 0.2999999999999805000 ) ) ;
#1240 = ORIENTED_EDGE ( 'NONE', *, *, #799, .T. ) ;
#1241 = DIRECTION ( 'NONE',  ( -1.000000000000000000, 0.0000000000000000000, -0.0000000000000000000 ) ) ;
#1242 = LINE ( 'NONE', #51, #944 ) ;
#1243 = EDGE_LOOP ( 'NONE', ( #1018, #971, #917, #876 ) ) ;
#1244 = ORIENTED_EDGE ( 'NONE', *, *, #773, .F. ) ;
#1245 = CARTESIAN_POINT ( 'NONE',  ( -1.149999999999999900, -0.6368767004711106700, 0.2999999999999805000 ) ) ;
#1246 = ORIENTED_EDGE ( 'NONE', *, *, #212, .T. ) ;
#1247 = EDGE_LOOP ( 'NONE', ( #407, #367, #342, #315, #293, #284, #272, #269, #250 ) ) ;
#1248 = AXIS2_PLACEMENT_3D ( 'NONE', #1228, #1265, #1270 ) ;
#1249 = DIRECTION ( 'NONE',  ( -1.000000000000000000, -0.0000000000000000000, -0.0000000000000000000 ) ) ;
#1250 = VECTOR ( 'NONE', #1102, 1000.000000000000000 ) ;
#1251 = FACE_OUTER_BOUND ( 'NONE', #1222, .T. ) ;
#1252 = DIRECTION ( 'NONE',  ( 0.0000000000000000000, 0.0000000000000000000, -1.000000000000000000 ) ) ;
#1253 = CARTESIAN_POINT ( 'NONE',  ( 1.149999999999999900, -0.9917501570555787800, 0.1499999999999999400 ) ) ;
#1254 = DIRECTION ( 'NONE',  ( -0.0000000000000000000, -0.08715574274766350900, -0.9961946980917451000 ) ) ;
#1255 = DIRECTION ( 'NONE',  ( -0.0000000000000000000, 0.08715574274766350900, -0.9961946980917451000 ) ) ;
#1256 = EDGE_LOOP ( 'NONE', ( #862, #896, #1106, #1118 ) ) ;
#1257 = ORIENTED_EDGE ( 'NONE', *, *, #829, .F. ) ;
#1258 = ORIENTED_EDGE ( 'NONE', *, *, #918, .F. ) ;
#1259 = CARTESIAN_POINT ( 'NONE',  ( -1.450000000000000400, 0.6500000000000000200, 0.4500000000000153900 ) ) ;
#1260 = CARTESIAN_POINT ( 'NONE',  ( 0.7500000000000000000, -0.9917501570555787800, 0.1499999999999999400 ) ) ;
#1261 = CARTESIAN_POINT ( 'NONE',  ( 0.2000000000000000100, 0.6368767004711106700, 0.2999999999999805000 ) ) ;
#1262 = CARTESIAN_POINT ( 'NONE',  ( 1.149999999999999900, -0.6622479918492942800, 0.2302929498360173400 ) ) ;
#1263 = PLANE ( 'NONE',  #1248 ) ;
#1264 = CARTESIAN_POINT ( 'NONE',  ( 0.2000000000000000100, 0.6622479918492942800, 0.2302929498360173400 ) ) ;
#1265 = DIRECTION ( 'NONE',  ( 0.0000000000000000000, -0.9396926207859098700, -0.3420201433256645500 ) ) ;
#1266 = EDGE_LOOP ( 'NONE', ( #860, #762, #746, #786 ) ) ;
#1267 = DIRECTION ( 'NONE',  ( 0.08682659386424444700, -0.08682659386424442000, -0.9924325091389676300 ) ) ;
#1268 = CARTESIAN_POINT ( 'NONE',  ( -1.149999999999999900, -1.200000000000000000, 0.0000000000000000000 ) ) ;
#1269 = ORIENTED_EDGE ( 'NONE', *, *, #918, .T. ) ;
#1270 = DIRECTION ( 'NONE',  ( 0.0000000000000000000, 0.3420201433256645500, -0.9396926207859098700 ) ) ;
#1271 = ORIENTED_EDGE ( 'NONE', *, *, #781, .F. ) ;
#1272 = EDGE_LOOP ( 'NONE', ( #1022, #1004, #996, #985 ) ) ;
#1273 = CARTESIAN_POINT ( 'NONE',  ( 1.401685193205004100, 0.6016851932050045800, 1.002240768664610000 ) ) ;
#1274 = CARTESIAN_POINT ( 'NONE',  ( 1.449999999999999700, -0.6500000000000000200, 0.4499999999999804700 ) ) ;
#1275 = ORIENTED_EDGE ( 'NONE', *, *, #731, .F. ) ;
#1276 = ORIENTED_EDGE ( 'NONE', *, *, #175, .F. ) ;
#1277 = CARTESIAN_POINT ( 'NONE',  ( 1.395654107283351000, -0.5956541072833513300, 1.071176396191555200 ) ) ;
#1278 = PLANE ( 'NONE',  #1203 ) ;
#1279 = EDGE_LOOP ( 'NONE', ( #973, #958, #953, #938 ) ) ;
#1280 = EDGE_LOOP ( 'NONE', ( #1194, #1219, #1240, #1057 ) ) ;
#1281 = CARTESIAN_POINT ( 'NONE',  ( -0.7500000000000000000, -1.200000000000000000, 0.0000000000000000000 ) ) ;
#1282 = CARTESIAN_POINT ( 'NONE',  ( 0.0000000000000000000, 0.0000000000000000000, 0.9499999999999999600 ) ) ;
#1283 = CARTESIAN_POINT ( 'NONE',  ( 1.149999999999999900, -0.6368767004711106700, 0.2999999999999805000 ) ) ;
#1284 = ORIENTED_EDGE ( 'NONE', *, *, #871, .F. ) ;
#1285 = CARTESIAN_POINT ( 'NONE',  ( -0.2000000000000000100, 0.9917501570555777900, 0.3499999999999999200 ) ) ;
#1286 = CARTESIAN_POINT ( 'NONE',  ( 1.406255668237038000, -0.6062556682370379100, 0.9499999999999999600 ) ) ;
#1287 = EDGE_LOOP ( 'NONE', ( #708, #705, #696, #563 ) ) ;
#1288 = ORIENTED_EDGE ( 'NONE', *, *, #885, .T. ) ;
#1289 = CARTESIAN_POINT ( 'NONE',  ( 0.0000000000000000000, 0.6150045345896303400, 0.05000000000000000300 ) ) ;
#1290 = CARTESIAN_POINT ( 'NONE',  ( 0.2000000000000000100, 0.9911404091243630800, 0.3499999999999999800 ) ) ;
#1291 = DIRECTION ( 'NONE',  ( 0.08682659386424407300, -0.08682659386424426700, -0.9924325091389677400 ) ) ;
#1292 = DIRECTION ( 'NONE',  ( 0.08682659386424404500, 0.08682659386424426700, -0.9924325091389677400 ) ) ;
#1293 = DIRECTION ( 'NONE',  ( 0.08682659386424418400, -0.08682659386424443300, 0.9924325091389677400 ) ) ;
#1294 = DIRECTION ( 'NONE',  ( 0.0000000000000000000, 0.0000000000000000000, 1.000000000000000000 ) ) ;
#1295 = EDGE_LOOP ( 'NONE', ( #161, #156, #149, #144 ) ) ;
#1296 = ORIENTED_EDGE ( 'NONE', *, *, #246, .F. ) ;
#1297 = CARTESIAN_POINT ( 'NONE',  ( 1.449999999999999500, 0.6500000000000000200, 0.4499999999999804700 ) ) ;
#1298 = DIRECTION ( 'NONE',  ( -1.000000000000000000, 0.0000000000000000000, -0.0000000000000000000 ) ) ;
#1299 = EDGE_LOOP ( 'NONE', ( #730, #744, #801, #805 ) ) ;
#1300 = CARTESIAN_POINT ( 'NONE',  ( -0.2000000000000000100, 0.9917501570555777900, 0.3499999999999999200 ) ) ;
#1301 = EDGE_LOOP ( 'NONE', ( #47, #36, #23, #1246, #306, #1076, #972, #997, #1003 ) ) ;
#1302 = CARTESIAN_POINT ( 'NONE',  ( -0.7500000000000000000, -0.9917501570555777900, 0.3499999999999999200 ) ) ;
#1303 = DIRECTION ( 'NONE',  ( 0.0000000000000000000, -1.000000000000000000, 0.0000000000000000000 ) ) ;
#1304 = DIRECTION ( 'NONE',  ( 1.000000000000000000, -0.0000000000000000000, -0.0000000000000000000 ) ) ;
#1305 = CARTESIAN_POINT ( 'NONE',  ( 0.7500000000000000000, -0.6622479918492942800, 0.2302929498360173400 ) ) ;
#1306 = ORIENTED_EDGE ( 'NONE', *, *, #360, .F. ) ;
ENDSEC;
END-ISO-10303-21;
