M48
; DRILL file {KiCad 9.0.7-9.0.7~ubuntu24.04.1} date 2026-03-02T22:14:30-0500
; FORMAT={-:-/ absolute / inch / decimal}
; #@! TF.CreationDate,2026-03-02T22:14:30-05:00
; #@! TF.GenerationSoftware,Kicad,Pcbnew,9.0.7-9.0.7~ubuntu24.04.1
; #@! TF.FileFunction,Plated,1,2,PTH
FMAT,2
INCH
; #@! TA.AperFunction,Plated,PTH,ViaDrill
T1C0.0079
; #@! TA.AperFunction,Plated,PTH,ComponentDrill
T2C0.0827
%
G90
G05
T1
X5.7283Y-3.9114
X5.749Y-4.1319
X5.8858Y-4.0866
X5.9409Y-4.2047
X5.9508Y-3.8327
X5.9525Y-4.1021
X5.9528Y-3.9055
X5.9547Y-3.6732
X5.9646Y-4.185
X5.9707Y-4.0715
X5.9764Y-3.9055
X6.0Y-4.1063
X6.0157Y-4.2795
X6.0198Y-4.1886
X6.0374Y-3.7106
X6.0584Y-3.6171
X6.0591Y-4.189
X6.0787Y-4.1043
X6.0827Y-4.1919
X6.0886Y-3.6181
X6.0886Y-3.9705
X6.1181Y-4.187
X6.1183Y-3.764
X6.1309Y-4.0866
X6.1379Y-3.7383
X6.1398Y-3.6122
X6.1614Y-4.0157
X6.1614Y-4.0591
X6.1693Y-3.6142
X6.1772Y-4.1102
X6.1939Y-4.2062
X6.2008Y-3.6073
X6.2111Y-3.9326
X6.2165Y-4.187
X6.2175Y-4.1086
X6.2295Y-3.989
X6.24Y-4.2203
X6.2638Y-4.185
X6.2756Y-4.2598
X6.2756Y-4.2913
X6.2756Y-4.3484
X6.2972Y-3.9977
X6.3116Y-3.9583
X6.3898Y-3.8878
X6.4005Y-3.9201
X6.4331Y-3.9469
X6.4496Y-4.1366
X6.4528Y-3.9114
X6.4528Y-3.9665
X6.4724Y-3.8681
X6.5039Y-4.0177
X6.5256Y-4.0965
X6.5295Y-3.7362
X6.5354Y-3.8661
X6.5492Y-4.3622
X6.565Y-4.1427
X6.5753Y-3.928
X6.5886Y-4.1732
X6.6383Y-3.9198
X6.7185Y-4.0344
T2
X5.7028Y-3.7547
X5.7028Y-4.3201
X6.6634Y-3.7547
X6.6634Y-4.3201
M30
