M48
; DRILL file {KiCad 9.0.7-9.0.7~ubuntu24.04.1} date 2026-03-17T22:03:19-0400
; FORMAT={-:-/ absolute / inch / decimal}
; #@! TF.CreationDate,2026-03-17T22:03:19-04:00
; #@! TF.GenerationSoftware,Kicad,Pcbnew,9.0.7-9.0.7~ubuntu24.04.1
; #@! TF.FileFunction,Plated,1,2,PTH
FMAT,2
INCH
; #@! TA.AperFunction,Plated,PTH,ViaDrill
T1C0.0079
; #@! TA.AperFunction,Plated,PTH,ViaDrill
T2C0.0120
; #@! TA.AperFunction,Plated,PTH,ComponentDrill
T3C0.0827
%
G90
G05
T1
X5.7283Y-3.9114
X5.8858Y-4.0866
X5.9508Y-3.8327
X5.9525Y-4.1021
X5.9547Y-3.6732
X5.9707Y-4.0715
X5.9966Y-3.8391
X6.0Y-4.1063
X6.0148Y-3.8549
X6.0157Y-4.2795
X6.0198Y-4.1886
X6.0374Y-3.7106
X6.0584Y-3.6171
X6.0591Y-4.189
X6.0886Y-3.6181
X6.0886Y-3.9705
X6.1183Y-3.764
X6.1379Y-3.7383
X6.1398Y-3.6122
X6.1614Y-4.0157
X6.1614Y-4.0591
X6.1693Y-3.6142
X6.2008Y-3.6073
X6.4496Y-4.1366
X6.5354Y-3.8661
X6.5886Y-4.1732
X6.6083Y-3.9229
X6.7185Y-4.0344
T2
X5.7313Y-4.122
X5.7805Y-4.3632
X5.9203Y-4.1772
X5.9606Y-4.185
X6.0295Y-4.251
X6.0984Y-4.1004
X6.1319Y-4.1033
X6.1811Y-4.0965
X6.1929Y-4.2549
X6.2628Y-4.2539
X6.2992Y-4.0
X6.3287Y-4.002
X6.3533Y-4.0187
X6.3583Y-3.9606
X6.4439Y-4.2283
X6.5Y-3.689
X6.5167Y-4.0108
X6.5394Y-3.9409
X6.5472Y-4.377
X6.5886Y-3.937
T3
X5.7028Y-3.7547
X5.7028Y-4.3201
X6.6634Y-3.7547
X6.6634Y-4.3201
M30
